<?xml version="1.0" encoding="UTF-8" standalone="no"?>
<!-- Generator: Adobe Illustrator 15.0.2, SVG Export Plug-In . SVG Version: 6.00 Build 0)  -->

<svg
   xmlns:dc="http://purl.org/dc/elements/1.1/"
   xmlns:cc="http://creativecommons.org/ns#"
   xmlns:rdf="http://www.w3.org/1999/02/22-rdf-syntax-ns#"
   xmlns:svg="http://www.w3.org/2000/svg"
   xmlns="http://www.w3.org/2000/svg"
   xmlns:sodipodi="http://sodipodi.sourceforge.net/DTD/sodipodi-0.dtd"
   xmlns:inkscape="http://www.inkscape.org/namespaces/inkscape"
   version="1.1"
   id="Ebene_1"
   x="0px"
   y="0px"
   width="100px"
   height="100px"
   viewBox="0 0 100 100"
   enable-background="new 0 0 100 100"
   xml:space="preserve"
   inkscape:version="0.48.4 r9939"
   sodipodi:docname="sum.svg"><metadata
     id="metadata3302"><rdf:RDF><cc:Work
         rdf:about=""><dc:format>image/svg+xml</dc:format><dc:type
           rdf:resource="http://purl.org/dc/dcmitype/StillImage" /><dc:title></dc:title></cc:Work></rdf:RDF></metadata><defs
     id="defs3300" /><sodipodi:namedview
     pagecolor="#ffffff"
     bordercolor="#666666"
     borderopacity="1"
     objecttolerance="10"
     gridtolerance="10"
     guidetolerance="10"
     inkscape:pageopacity="0"
     inkscape:pageshadow="2"
     inkscape:window-width="1366"
     inkscape:window-height="744"
     id="namedview3298"
     showgrid="false"
     inkscape:zoom="4.72"
     inkscape:cx="75.428405"
     inkscape:cy="49.480868"
     inkscape:window-x="0"
     inkscape:window-y="24"
     inkscape:window-maximized="1"
     inkscape:current-layer="Ebene_1" /><circle
     fill="#B2B2B2"
     cx="50"
     cy="50"
     r="50"
     id="circle3278" /><path
     inkscape:connector-curvature="0"
     style="fill:#222222;fill-opacity:1;stroke:none"
     d="M 71.626312,24.582906 71.626312,24.781704 C 71.383323,24.989706 71.230243,25.262905 71.029919,25.510627 70.790048,25.811319 70.462027,25.570298 70.300995,25.378096 70.20148,25.279852 70.048189,25.378096 69.9034,25.378096 69.834972,25.386639 69.845617,25.641081 69.837135,25.709425 69.785458,25.486049 69.690014,25.268862 69.638337,25.046766 69.22293,25.231276 69.231285,25.255838 69.174477,25.709425 L 69.041945,25.245564 C 68.540509,25.264358 68.731673,25.788759 68.843148,26.040754 68.969996,26.325633 69.174477,26.648145 69.174477,26.968475 69.174477,27.278979 69.056725,27.838728 69.240742,28.094993 69.348804,28.244479 69.334829,28.441463 69.373275,28.62512 69.406163,28.787847 69.549912,28.94803 69.638337,29.088981 69.91553,29.528046 69.525017,30.685955 69.041945,30.878157 68.885367,30.93838 67.93678,31.192522 67.915427,31.342018 67.855629,31.789627 68.06102,31.960154 68.313021,32.336005 68.080847,32.139964 67.816441,31.936078 67.584098,31.739613 67.537977,31.961704 67.4219,32.004803 67.252769,32.137207 67.193395,31.749823 67.27743,31.779995 67.584098,31.540815 67.300289,31.656134 66.901485,31.872145 66.590111,31.872145 66.392776,31.863599 66.369408,31.771844 66.258781,31.93841 66.190438,32.040916 66.129961,32.137207 65.993719,32.137207 66.004384,31.906569 66.092258,31.572793 65.861186,31.474549 65.773885,31.436964 65.820558,31.068282 65.794921,30.944423 65.647694,30.261052 64.786323,30.420891 64.337073,30.613094 63.960366,30.773258 63.86789,30.688288 63.674415,31.076955 63.554882,31.317842 63.525343,31.558156 63.674415,31.805878 63.731903,31.901551 63.163459,32.304028 63.078023,32.40227 62.795275,32.730715 62.862622,33.011863 62.945492,33.396257 62.964703,33.485096 62.694466,33.924306 62.614163,33.99265 62.349905,34.219014 62.168771,34.191447 61.818973,34.191447 61.674058,34.191447 61.157969,34.28969 61.090049,34.191447 60.906307,33.931338 60.747057,33.690961 60.626188,33.396257 60.520778,33.139994 60.304974,32.906514 60.162328,32.667334 60.03444,32.453793 59.773575,32.504647 59.632201,32.269739 59.490149,32.034825 59.145142,32.201017 59.035809,31.872145 58.940047,31.583421 58.806795,31.515051 58.505682,31.408284 58.32105,31.32287 58.199864,31.209613 58.041822,31.342018 57.917094,31.435978 57.893301,31.570587 57.710493,31.408284 57.640028,31.348487 57.686446,31.14322 57.577961,31.14322 57.423334,31.126129 57.334251,31.075003 57.312899,31.275752 57.076144,30.98959 56.217,30.721367 56.053848,31.275752 55.884716,31.851064 56.016379,32.432318 56.18638,32.998663 56.348641,33.539381 56.285535,34.045656 56.65024,34.522776 56.745917,34.65091 56.752872,34.700348 56.782772,34.854105 56.799926,34.948069 56.744327,35.134182 56.782772,35.185434 57.044972,35.544201 57.052775,35.610471 57.312899,35.2517 57.423567,35.69461 57.694399,36.083645 57.843024,36.51075 58.001469,36.962201 57.942413,37.342695 57.710493,37.769801 57.495643,38.163595 57.612313,38.586732 57.776759,38.962585 57.973245,39.412329 58.041631,39.625691 57.843024,40.089104 57.596558,39.953281 57.723216,39.772536 57.710493,39.558977 57.697261,39.356102 57.595413,39.146242 57.511695,38.962585 57.407897,38.739635 57.20172,38.772072 57.180366,38.498725 57.163382,38.258264 57.20172,38.079519 57.180366,37.836067 57.160731,37.616533 57.09262,37.357065 56.98157,37.173409 56.864114,36.980784 56.978516,36.777765 56.915303,36.577016 56.823867,36.290852 56.613322,36.407991 56.451443,36.245688 56.356634,36.150442 56.262399,35.719696 56.18638,35.583029 56.070197,35.374174 56.052936,35.151008 55.987582,34.920371 55.983172,34.90328 55.481735,34.830547 55.39119,34.78784 55.186095,34.719507 55.007081,34.631749 54.794797,34.589042 54.410817,34.541208 54.463468,34.505306 54.463468,34.125182 54.463468,33.943236 54.583277,33.667534 54.596,33.462524 54.609656,33.243418 54.541206,33.06688 54.463468,32.866132 54.364547,32.607733 54.263993,32.417157 53.999608,32.336005 53.872632,32.297582 53.78268,32.577509 53.602014,32.534803 53.612701,32.324666 53.762366,32.192595 53.80081,32.004676 53.859315,31.713389 53.752294,31.675297 53.535747,31.474549 53.435235,31.380586 53.090187,31.064274 53.005621,31.209486 52.864671,31.452085 52.85532,31.493952 52.608026,31.673347 52.55934,31.360278 52.604739,31.234856 52.740558,30.944423 52.881974,30.624093 52.502277,30.613094 52.342963,30.613094 52.054235,30.628043 52.13087,30.824962 52.0779,31.076955 52.006566,31.414365 52.018144,31.39327 51.680305,31.342018 51.76873,31.146403 51.863835,30.843868 51.547773,30.745626 51.289707,30.664903 51.072674,31.059991 50.951381,31.209486 50.637058,31.596444 50.477811,32.017874 50.156192,32.40227 50.291164,32.40227 50.49526,32.336132 50.553787,32.468536 50.628534,32.64066 50.677411,32.823551 50.752583,32.998663 50.626753,32.921784 50.295869,32.667334 50.156192,32.667334 50.067771,32.671596 50.046243,32.799866 49.957394,32.799866 49.891629,32.808411 49.685439,32.776307 49.626065,32.733599 49.264936,32.579842 48.885296,32.816694 48.565812,32.534803 48.405943,32.393004 47.920606,33.013803 47.836888,33.19746 47.646827,33.61389 48.421906,33.898815 47.96942,34.125182 47.763549,34.227687 47.582386,34.272853 47.439294,34.456511 47.225318,34.731141 47.48603,34.847892 47.638091,35.052903 47.773062,35.236132 47.962655,35.564001 48.035686,35.781826 48.110858,36.008193 48.131978,36.30574 48.234483,36.51075 48.286605,36.613255 48.358533,36.793032 48.367015,36.908345 48.372146,36.985213 48.309231,37.096519 48.300749,37.173409 48.283764,37.372439 48.315211,37.489979 48.234483,37.703535 48.079697,38.116121 48.228001,38.537296 47.704357,38.631256 47.774363,38.361755 47.401528,38.081727 47.240496,37.902332 47.037182,38.077869 47.315244,38.334351 47.240496,38.56499 47.146102,38.5052 46.954801,38.299927 46.842902,38.299927 46.681444,38.312735 46.566663,38.400227 46.511573,38.233661 46.416319,37.947927 46.418694,37.649827 46.312775,37.372206 46.132191,36.902389 46.174552,36.087391 45.583851,35.980624 45.38696,35.946454 45.349408,35.80952 45.186256,35.715561 44.970145,35.591698 44.941635,35.711034 44.854927,35.450498 44.754129,35.149388 44.527373,35.003463 44.457332,34.721574 44.394968,34.473844 44.598346,34.565356 44.589865,34.390245 44.585593,34.30483 44.368356,34.135784 44.324801,34.058916 44.249629,33.926518 44.270791,33.79593 44.126003,33.727586 43.976088,33.659262 43.86094,33.695355 43.86094,33.528789 43.86094,33.315661 43.653534,32.89797 43.595877,32.667334 43.556156,32.509292 43.484572,32.519789 43.330813,32.468536 43.257784,32.44291 43.264548,32.209814 43.264548,32.137207 43.264548,32.009076 42.756072,31.805878 42.60189,31.805878 42.396362,31.790077 42.478441,32.227032 42.13803,32.269739 42.015447,32.282568 41.782654,32.122322 41.674169,32.203474 41.508451,32.327335 41.521429,32.363953 41.409105,32.534803 41.309717,32.68856 40.87898,32.353474 40.87898,32.733599 40.87898,33.015918 40.752788,33.387973 40.680182,33.661321 40.655836,33.75102 40.861803,33.757613 40.87898,33.860118 40.908878,34.021137 40.947875,34.170221 41.011511,34.323979 41.076377,34.477739 40.973066,34.572078 41.011511,34.721574 41.067042,34.942815 41.116349,35.055236 41.210309,35.2517 41.28461,35.405884 41.409105,35.610977 41.409105,35.781826 41.409105,35.95694 41.582288,36.029926 41.607903,36.179421 41.648384,36.391695 41.652751,36.562256 41.607903,36.775813 41.563055,36.985082 41.674169,36.981206 41.674169,37.173409 41.674169,37.402338 41.859352,37.742232 41.939232,37.968598 42.033192,38.233831 42.033637,38.498984 41.939232,38.763788 41.844842,39.028597 41.598149,39.215093 41.674169,39.492711 41.821054,40.030866 41.440461,40.602531 41.144042,41.016825 40.928435,40.85026 40.877446,40.775448 40.613916,40.950559 40.409156,41.091509 40.342195,41.2177 40.08379,41.149356 40.071067,41.213425 40.071067,41.350359 40.08379,41.414419 40.267616,41.401612 40.406276,41.286277 40.547651,41.414419 40.631366,41.491298 40.870497,41.762967 40.87898,41.878281 40.885387,41.98762 40.722889,42.152016 40.680182,42.275875 40.611418,42.480875 40.52952,42.545328 40.348853,42.67347 40.033428,42.893856 39.790905,42.145294 39.752461,41.944546 39.689252,41.596883 39.806453,41.339356 39.487397,41.083091 39.33364,41.258192 39.309656,41.213671 39.421132,41.414419 39.463075,41.491298 39.675338,41.745748 39.487397,41.745748 39.02356,41.738917 39.146738,41.595744 39.222334,41.215623 39.276157,40.946117 39.495456,40.689512 39.421132,40.420433 39.324627,40.064228 39.320705,39.868567 39.354866,39.492711 39.209215,39.608029 39.217945,39.345167 39.089803,39.293914 38.97021,39.246923 38.932312,39.554448 38.758474,39.293914 38.576651,39.516436 38.442331,39.764369 38.228347,39.956572 38.145902,40.033451 38.160321,40.140483 38.095816,40.221635 38.036456,40.294242 37.900368,40.347827 37.830753,40.420433 37.602758,40.664308 37.396173,40.905905 37.168095,41.149356 36.990439,41.33942 37.091883,41.771631 36.969297,42.010812 36.466752,42.997855 36.873125,44.263389 37.433157,45.125304 36.812689,45.329889 36.660488,44.530598 36.505436,44.065052 36.412753,43.786578 36.402252,43.58812 36.240373,43.336128 36.203644,43.280592 35.971068,43.329787 35.97531,43.402394 35.992486,43.603562 35.971068,43.793776 35.97531,43.998786 35.994543,44.654395 36.391873,45.164456 36.107841,45.854229 36.022841,46.060524 35.742838,46.44867 35.842778,46.649418 35.951263,46.866389 35.954444,47.081439 36.041576,47.312076 36.118466,47.516661 36.257549,47.827442 36.240373,48.041 36.214318,48.404034 36.090623,48.513016 35.97531,48.107266 35.824026,47.577653 35.744281,47.043938 35.577715,46.516887 35.507665,46.2965 35.324123,46.134052 35.246386,45.920494 35.129779,45.603583 35.274207,45.454176 35.312652,45.125304 35.342551,44.898938 35.312652,44.627017 35.312652,44.396381 35.312652,44.083312 35.157113,43.966431 35.246386,43.667457 34.896833,43.586733 34.916224,43.603007 34.782525,43.269862 34.739816,43.167357 34.660914,42.756954 34.451197,42.872267 34.284578,42.966232 33.988057,43.004926 33.854804,43.137331 33.613612,43.37224 33.597538,43.4451 33.258412,43.402394 33.793203,42.950088 34.540151,42.290543 34.583728,41.546952 34.610639,41.089946 34.420242,40.670737 33.92107,40.884294 33.766455,40.952631 33.691822,41.149483 33.589741,41.281888 33.459644,41.44846 33.367258,41.559887 33.192146,41.679483 33.258607,41.247252 33.459966,41.052808 33.656007,40.685496 33.860209,40.304518 33.523953,40.022838 33.125881,40.022838 32.701285,40.022838 32.564517,40.262019 32.131893,40.022838 32.020844,39.958777 31.906059,39.95865 31.800564,39.890306 31.711293,39.830508 31.935216,39.691509 31.933096,39.691509 31.908327,39.537751 31.747424,39.353713 31.601767,39.293914 31.819606,39.035516 31.885862,38.793428 31.668033,38.498725 31.57535,38.374868 31.455876,38.269901 31.336704,38.167396 31.267936,38.107599 31.319527,37.855215 31.336704,37.769801 31.525062,37.816782 31.663028,37.972988 31.800564,38.10113 31.934156,38.224991 31.837419,38.421835 31.933096,38.498725 32.164549,38.683665 32.380122,39.129405 32.66202,39.227648 32.805444,39.313063 32.972122,39.184942 33.125881,39.227648 33.408247,39.308793 33.397963,39.317212 33.589741,39.095117 33.796679,38.853373 34.038414,38.667368 34.252399,38.432459 34.152453,38.402559 34.007778,38.355442 33.92107,38.299927 33.84804,38.252948 33.803849,38.077571 33.722273,38.034863 33.538955,37.957975 33.345544,38.271843 33.258412,37.968598 33.665666,37.846447 33.938471,37.654095 34.252399,37.372206 34.342946,37.291057 34.600904,37.089924 34.583728,36.974611 34.535883,36.664532 34.57196,36.679392 34.782525,36.444484 34.5635,36.337696 34.362044,36.288394 34.119868,36.245688 34.511966,36.049645 34.710216,35.901949 34.649993,35.450498 34.595022,35.023394 34.021251,35.052903 33.722273,35.052903 33.892676,34.971753 34.042671,34.732197 33.788539,34.655307 33.55678,34.582695 33.56002,34.811398 33.324678,34.854105 33.124106,34.854105 32.91578,34.794307 32.728285,34.854105 32.495592,34.926711 32.413497,35.11891 32.264425,34.854105 32.630933,34.703761 33.003548,34.475659 33.390943,34.390245 33.663189,34.330446 33.974348,34.257713 34.252399,34.257713 34.49244,34.257713 34.670247,34.07588 34.384931,33.926384 34.208576,33.832423 34.069273,33.731722 33.92107,33.595055 33.792978,33.475462 33.51565,33.727586 33.390943,33.727586 32.869272,33.766454 32.728285,33.453104 32.728285,32.998663 32.839762,33.084076 32.947716,33.178312 33.059614,33.263726 33.121124,33.00917 33.006898,32.934348 32.860817,32.733599 32.749597,32.584104 32.443396,32.601068 32.264425,32.601068 32.282789,32.857331 32.33033,33.08227 32.396956,33.329992 32.418397,33.411142 31.890686,33.676334 31.800564,33.727586 31.911187,33.605006 32.233126,33.351218 32.131893,33.19746 31.913681,32.868593 31.963105,32.770094 31.601767,32.932397 31.538533,32.754722 31.499135,32.585928 31.469235,32.40227 31.464528,32.372374 31.328942,31.848713 31.270438,31.93841 31.349893,31.81882 31.608108,31.508583 31.535501,31.342018 31.420612,31.072936 31.261956,31.316005 31.336704,30.944423 31.257685,30.965797 30.985675,31.079033 30.939109,31.010689 30.855824,30.891098 30.815844,30.788333 30.674046,30.745626 30.290624,30.665757 30.213351,30.572196 29.945122,30.281765 29.900146,30.570906 29.425916,30.658134 29.216198,30.811891 29.429884,30.550503 29.684151,30.29652 29.945122,30.082968 30.123653,29.937745 29.952247,29.886248 29.81259,29.817904 29.723783,29.774338 29.759048,29.452287 29.746325,29.354043 29.604738,29.46082 29.145903,29.764319 28.951135,29.619107 28.862201,29.551198 28.902045,29.014042 28.884869,28.890183 28.860952,29.228452 28.828231,29.350029 28.619806,29.619107 28.568107,29.478163 28.472685,29.358179 28.421008,29.221512 28.090763,29.366724 28.043601,29.612512 27.692085,29.42031 27.781352,29.306699 28.085438,29.031133 28.089679,28.890183 28.093963,28.787682 27.922986,28.665622 27.957148,28.558854 27.987917,28.460628 27.993515,28.396296 28.023413,28.293791 27.973009,28.353589 27.879283,28.370808 27.824616,28.426322 27.694354,28.124785 27.638883,28.118292 27.890882,27.896196 27.629955,27.793691 27.542218,27.492133 27.29449,27.432335 26.921575,27.339227 26.878829,27.094278 26.764363,26.769677 26.721211,26.645817 26.719451,26.504487 26.698098,26.372083 26.683148,26.273839 26.496246,26.237346 26.433034,26.173285 26.18035,25.912757 26.309095,25.841956 25.902908,25.841956 26.335998,26.231906 26.315325,26.429468 26.167971,26.968475 25.855665,26.482427 25.596403,26.038421 25.041452,25.841956 24.935109,26.025613 24.933455,26.190504 25.107719,26.305817 24.808316,26.562082 24.77639,26.575537 24.77639,26.968475 24.452423,26.709219 24.133855,26.431881 23.716136,26.372083 23.516249,26.342186 23.548384,26.121906 23.384807,26.040754 23.253768,25.955339 22.937911,26.040754 22.788415,26.040754 23.020551,26.315811 23.285415,26.558324 23.517339,26.835943 23.284556,26.874388 23.215422,26.921236 23.119744,26.703412 23.069773,26.588092 22.957122,26.305817 22.788415,26.305817 22.667542,26.301554 22.554417,26.504614 22.39082,26.504614 L 21.860694,26.504614 22.125757,26.968475 C 21.979385,26.853159 21.414709,26.218581 21.330568,26.637146 21.275426,26.913058 21.743362,27.276372 21.993226,27.36607 22.16237,27.427146 22.025627,27.697526 21.926959,27.82993 21.76222,28.052032 21.703566,28.101333 21.463099,28.028728 21.260092,27.964668 20.621471,27.389711 20.800441,27.962462 20.915419,28.3302 22.086778,29.1955 22.457086,28.823918 22.620286,28.657351 22.778788,28.590831 22.987213,28.492589 23.2059,28.385812 23.135054,28.387628 23.053478,28.16126 23.02768,28.09036 23.797903,27.819179 23.914934,27.763664 23.701931,27.992595 23.525333,28.144433 23.384807,28.426322 23.209817,28.772289 23.820529,28.462562 23.914934,28.360057 24.020687,28.246018 24.254936,27.827725 24.378794,27.763664 24.5197,27.691058 24.942849,27.82993 25.107719,27.82993 24.658827,27.94226 24.664598,28.029114 24.445061,28.426322 24.298555,28.689846 24.085492,28.909458 24.511326,28.956449 24.871981,28.994893 25.067821,29.163532 25.372782,28.890183 25.585699,28.701401 25.735115,28.468902 25.969173,28.293791 25.969173,28.520166 26.14119,28.576072 26.300503,28.691386 26.009251,28.892125 25.603851,29.018701 25.372782,29.287778 25.862896,29.509863 26.378292,29.215045 26.896895,29.155247 26.725068,29.799751 25.767204,29.681238 25.306515,29.817904 25.383827,29.95885 25.494265,30.078832 25.571579,30.215499 25.436183,30.159963 25.270086,30.127753 25.173984,30.016702 25.115897,29.952635 25.000314,29.751639 24.908921,29.751639 24.79044,29.738831 24.541161,29.757979 24.445061,29.685372 24.374588,29.634122 24.26927,29.486576 24.179997,29.486576 23.8184,29.529287 23.574748,29.580789 23.252276,29.751639 22.946247,29.918204 22.807322,29.950436 22.457086,29.950436 22.517308,30.125121 22.319974,30.384524 22.457086,30.546828 22.630238,30.749277 22.799272,30.955301 22.987213,31.14322 23.166046,31.320472 23.320874,31.515305 23.517339,31.673347 23.64761,31.792922 23.987794,31.628562 24.179997,31.739613 24.450234,31.893367 24.673643,31.985528 24.975186,32.070942 25.186523,32.135006 25.246844,32.366032 25.439048,32.468536 25.627575,32.566773 25.901381,32.774101 26.101705,32.667334 26.35947,32.530659 26.639343,32.406406 26.896895,32.269739 26.839224,32.402143 26.765508,32.59899 26.631832,32.667334 26.515997,32.72713 26.230759,32.817084 26.167971,32.932397 26.108175,33.04131 25.894426,33.342927 25.902908,33.462524 25.910169,33.552217 26.11288,33.725509 26.167971,33.793853 26.451108,34.150059 26.551528,34.281654 26.631832,34.721574 26.710377,35.153805 26.874505,35.307618 27.161958,35.649295 27.001232,35.666386 26.593387,35.608914 26.631832,35.848092 26.665145,36.050118 26.550977,36.186017 26.4993,36.378219 26.433872,36.623432 26.306196,36.757308 26.167971,36.908345 26.201231,36.813315 26.167971,36.70722 26.167971,36.51075 26.167971,36.242101 26.354046,35.993179 26.366769,35.715561 26.384068,35.318782 26.273644,35.210944 25.902908,35.052903 25.779474,35.00165 25.928544,34.828341 25.902908,34.721574 25.881126,34.631876 25.763485,34.462851 25.704111,34.390245 25.62061,34.912595 25.443119,35.300051 25.24025,35.781826 25.128347,36.047488 24.896198,36.049345 24.908921,36.378219 24.920881,36.705384 24.95536,36.838063 24.77639,37.107142 24.754612,36.738119 24.726473,36.339395 24.842655,35.980624 24.944181,35.668838 25.360058,35.315506 25.372782,34.986637 25.380479,34.79102 25.454661,34.437235 25.24025,34.390245 25.038985,34.345826 25.075613,34.114303 25.041452,33.926384 25.005574,33.738465 24.731477,33.77445 24.710123,33.595055 24.687074,33.395594 24.665211,33.199411 24.643857,32.998663 24.340863,33.203674 24.27243,33.252976 23.914934,33.19746 23.870934,33.672831 23.870382,34.186343 23.782402,34.655307 23.700351,35.093519 23.562298,35.662364 23.18601,35.914359 23.279121,35.57737 23.819738,34.298096 23.517339,34.058916 23.306857,34.316034 23.244409,34.59784 23.053478,34.854105 22.802675,35.186386 22.725617,35.25609 22.324555,35.384232 22.826245,34.799095 23.372233,34.004266 23.18601,33.19746 23.082648,33.636528 22.966092,34.042217 22.788415,34.456511 22.735042,34.055457 22.86645,33.564772 22.655884,33.19746 22.564566,33.563065 22.414123,33.821937 22.192023,34.125182 22.082246,34.276804 22.024334,34.431001 21.926959,34.589042 21.885955,34.655677 21.607103,34.589042 21.529365,34.589042 21.98796,34.13033 22.416394,33.554628 22.324555,32.866132 22.288462,32.597064 22.104514,32.057296 21.794428,32.534803 21.56669,32.885029 21.445215,33.035157 21.065505,33.19746 21.048434,33.099234 21.08268,32.964374 21.065505,32.866132 21.051827,32.779008 21.163874,32.85538 21.198036,32.799866 21.255693,32.701631 21.317844,32.513322 21.330568,32.40227 21.366445,32.077241 21.425564,31.827105 21.065505,31.673347 20.458957,31.41324 20.065359,30.788333 19.342593,30.745626 19.176403,30.702918 18.900829,30.619562 18.746201,30.67936 18.610805,30.730612 18.461799,30.91673 18.348607,31.010689 18.225171,31.110632 17.79054,31.530191 18.083543,31.607081 18.2678,31.666879 18.426175,31.673347 18.61367,31.673347 18.79263,31.660533 18.883122,31.818813 19.011264,31.93841 19.231144,32.142568 19.395797,32.321252 19.607657,32.534803 19.320763,32.340043 18.90191,31.981117 18.547404,31.93841 18.441906,31.93841 18.319853,31.829437 18.216074,31.872145 18.1486,31.884952 18.082632,32.028234 18.017278,32.070942 17.848693,32.122195 17.603263,32.070942 17.420885,32.070942 17.634187,32.283215 17.801158,32.359691 18.017278,32.534803 18.129311,32.626203 18.34532,33.190993 18.481138,33.131195 18.953612,32.928745 19.360236,34.016465 19.475126,34.323979 19.168879,34.170221 19.064235,34.131268 19.011264,33.793853 18.968982,33.516231 18.91912,33.622749 18.679936,33.528789 18.256494,33.362219 17.845438,33.227232 17.420885,33.064928 17.212708,32.983777 17.047019,32.908838 16.824493,32.866132 16.559254,32.826838 16.547345,33.03736 16.426898,33.263726 16.24751,33.60285 16.574994,34.059174 16.758227,34.323979 17.005612,34.68403 17.304959,34.976161 17.685949,35.185434 17.98762,35.353285 18.17327,35.781826 18.61367,35.781826 18.875962,35.781826 18.919133,35.773408 19.143796,35.914359 19.381314,36.063853 19.551039,36.081178 19.806454,36.179421 20.185904,36.328056 20.607022,36.600829 20.866707,36.908345 20.651656,36.827207 20.367143,36.643282 20.137783,36.643282 19.790111,36.617667 19.568474,36.628142 19.276328,36.444484 19.017111,36.277919 18.854499,36.172954 18.547404,36.113155 18.345038,36.05764 17.992743,36.254105 17.81848,36.113155 17.370434,35.746696 17.040918,35.450498 16.426898,35.450498 15.908678,35.450498 15.732458,36.139165 16.029303,36.51075 16.313035,36.865246 16.495181,37.295573 16.824493,37.637269 17.057399,37.897805 17.168522,37.836067 17.487151,37.836067 17.655818,37.836067 17.786142,38.167396 17.951012,38.167396 18.43643,38.116142 19.078868,38.254888 19.541391,38.10113 19.853101,37.994362 20.100021,37.981278 20.402847,37.836067 20.627722,37.750631 20.750658,37.613838 20.999238,37.703535 20.862818,37.938445 20.719831,37.900254 20.469112,37.968598 20.718121,38.250486 20.653437,38.45589 20.270315,38.366192 20.034803,38.310657 19.934108,38.383411 19.740188,38.498725 19.488959,38.656765 19.515877,38.673963 19.210062,38.631256 18.907536,38.575742 18.689934,38.430508 18.414872,38.631256 17.933426,38.981485 18.989243,39.336748 19.210062,39.426446 19.480895,39.554567 20.287894,39.025886 20.33658,39.492711 20.041614,39.531156 19.658723,39.503569 19.408859,39.691509 19.201198,39.849533 19.259363,39.813544 19.408859,40.022838 19.538295,40.206491 19.467746,40.232492 19.342593,40.420433 19.179052,40.259412 19.042309,40.118876 18.878733,39.956572 18.806125,40.293983 18.585361,39.978184 18.481138,40.221635 18.390162,40.431344 18.373554,40.736748 18.083543,40.685496 18.121988,40.42795 18.09826,40.206495 18.282341,40.022838 18.342137,39.963044 18.073238,39.578125 18.017278,39.492711 17.709626,39.031437 17.398472,38.89827 16.890759,38.697522 16.641279,38.599287 16.423294,38.496392 16.228101,38.299927 16.082282,38.154723 15.68241,38.133107 15.499177,38.034863 15.021448,37.779027 14.794565,37.434082 14.240127,37.30594 14.180759,37.692044 13.998379,38.041592 14.240127,38.366192 14.496182,38.70745 14.524296,39.114658 14.836519,39.426446 14.988358,39.580202 15.104761,39.676623 15.30038,39.757775 15.440473,39.817573 15.583081,39.858329 15.697974,39.956572 16.010794,40.229491 16.313046,40.54468 16.625695,40.818027 16.047936,40.50154 15.023134,39.719588 14.306393,40.022838 14.444351,40.273547 14.622899,40.508303 14.770253,40.751762 14.85354,40.888422 15.090967,40.863067 15.167848,41.016825 15.25797,41.196216 15.182986,41.237104 15.366645,41.348154 15.470434,41.412218 15.639033,41.444467 15.697974,41.546952 15.728728,41.598204 15.839967,41.879989 15.896772,41.878281 16.184177,41.835573 16.470778,41.878281 16.758227,41.878281 16.369252,41.980786 15.880226,42.350659 15.565443,41.878281 15.321388,41.511395 14.946034,41.461283 14.571456,41.281888 14.461174,41.230635 14.071229,41.11933 14.041329,41.016825 13.981104,40.797296 13.980855,40.743089 13.776266,40.61923 13.608282,40.516725 12.825292,40.091309 12.649748,40.155369 12.534852,40.198505 12.326964,40.839508 12.318418,40.950559 12.301334,41.205541 12.419518,41.527804 12.185887,41.613217 11.894551,41.723411 11.563868,41.739663 11.589495,42.077077 11.612131,42.358972 11.084994,42.105162 11.059368,42.408406 11.020886,42.856874 12.42124,42.540938 12.649748,42.540938 12.870096,42.519585 13.254017,42.3657 13.444937,42.408406 13.780435,42.468201 13.953532,42.547533 14.240127,42.739736 14.432158,42.867878 14.729376,43.113644 14.902785,42.938533 14.973258,42.870198 15.159368,43.086078 15.234114,43.137331 15.308859,43.188583 15.163585,43.387508 15.167848,43.46866 15.201674,44.254109 16.144249,44.026479 16.625695,43.93252 16.951882,43.868879 17.115371,43.804003 17.288353,43.534925 17.472312,43.248759 17.546042,43.137331 17.884745,43.137331 18.464212,43.137331 18.8582,42.735206 19.342593,42.474673 19.290896,42.384983 19.261738,42.295044 19.210062,42.20961 19.475897,42.422309 19.604554,42.617956 19.938986,42.67347 20.344575,42.741805 20.486084,42.602675 20.800441,42.342141 21.100713,42.091427 20.763354,41.880095 20.866707,41.546952 20.987839,41.159567 21.182058,40.98447 21.463099,40.685496 21.381952,40.847798 21.052824,41.271392 21.198036,41.480686 21.192654,41.472144 21.858574,41.877854 21.860694,41.878281 21.947227,41.895365 22.416436,41.645194 22.39082,41.546952 22.348113,41.367578 22.204958,41.448454 22.324555,41.281888 22.499674,41.040999 22.538789,40.781402 22.589618,40.486698 22.639163,40.618676 22.804461,41.538153 23.053478,41.281888 23.088064,41.247716 23.027863,41.130081 23.053478,41.083091 23.092348,41.010485 23.193771,40.939808 23.252276,40.884294 23.364175,40.781786 23.318542,40.636194 23.318542,40.486698 23.456073,40.597745 23.599106,40.751889 23.716136,40.884294 23.814373,40.995342 23.384807,41.134471 23.384807,41.215623 23.384807,41.422342 23.320557,41.553546 23.18601,41.745748 23.097177,41.869599 23.288282,41.912569 23.384807,42.010812 L 23.517339,41.745748 C 23.65154,41.972115 23.789125,42.393394 24.113732,42.342141 24.053933,41.645527 23.975156,40.918247 23.914934,40.221635 24.205204,40.494985 24.234191,40.435192 24.577592,40.221635 24.414444,40.51591 24.116849,40.75849 24.246263,41.083091 24.373979,41.401285 24.42852,41.694755 24.577592,42.010812 24.610481,42.079156 24.913162,41.997877 24.908921,41.878281 24.90029,41.716406 24.908921,41.572461 24.908921,41.414419 L 24.908921,40.420433 C 24.968274,40.535324 25.151295,40.818154 25.107719,40.950559 25.056041,41.110723 24.900015,41.252116 24.975186,41.414419 25.002096,41.472936 25.144085,41.944546 25.173984,41.944546 25.317498,42.017148 25.421871,41.835446 25.439048,41.745748 25.474498,41.566364 25.587928,41.422838 25.704111,41.281888 25.720127,41.262668 25.72515,41.196022 25.704111,41.149356 25.655019,41.040469 25.538503,40.929136 25.505313,40.884294 25.4076,40.76043 25.563394,40.61484 25.505313,40.486698 25.612974,40.67775 25.68204,40.86017 25.704111,41.149356 25.719485,41.350523 25.957151,41.553546 25.902908,41.745748 25.855069,41.914456 25.775444,42.113572 25.704111,42.275875 25.838224,42.237445 26.212884,42.156024 26.234237,42.010812 26.265832,41.790854 26.336869,41.632245 26.366769,41.414419 26.487216,41.53401 26.577653,41.626152 26.698098,41.745748 26.908492,41.516393 27.083987,41.4271 27.360756,41.281888 27.261667,41.563351 27.237003,41.668987 27.029427,41.878281 27.378596,41.848384 27.751204,41.918536 27.890882,41.546952 27.97246,41.330835 28.207389,41.129954 28.354742,40.950559 28.275467,41.339653 28.078585,42.166902 27.559553,42.20961 27.168143,42.239506 26.911653,42.132985 26.698098,42.474673 26.543652,42.721539 26.803058,42.957935 27.029427,43.137331 27.116132,43.205666 27.269786,43.601191 27.360756,43.601191 27.506531,43.601191 27.612268,43.601191 27.75835,43.601191 28.032551,43.623826 28.045318,43.3017 28.155946,43.071065 28.224541,42.930119 28.615565,42.87214 28.619806,42.739736 28.628246,42.487745 28.611323,42.196538 28.619806,41.944546 28.734701,42.151266 28.995377,42.938533 29.216198,42.938533 29.285388,42.59087 29.286556,42.440248 29.547527,42.20961 29.547527,42.55642 29.547294,42.590378 29.746325,42.872267 29.874848,43.055925 29.866133,43.242292 29.878856,43.46866 30.163525,43.255104 30.440904,43.244352 30.740312,43.402394 31.006534,43.543342 31.349406,43.246304 31.668033,43.203596 31.37469,43.691347 31.155428,43.746658 30.607779,43.866254 30.459355,43.866254 30.114741,43.785102 30.011388,43.866254 29.817478,44.015315 29.934943,44.242623 30.011388,44.396381 29.810207,44.528785 29.781292,44.342796 29.680058,44.197583 29.590363,44.458119 29.613971,44.505354 29.348729,44.462647 29.231701,44.449832 29.0357,44.65082 28.951135,44.72771 28.760982,44.903678 28.528516,45.230143 28.288477,45.324102 27.957337,45.45266 27.658456,45.529495 27.360756,45.721697 27.233048,45.80285 27.04639,45.944053 26.896895,45.98676 26.790106,46.012387 26.896895,46.28185 26.896895,46.384355 26.791995,46.076837 26.55085,46.343853 26.366769,46.450621 26.169816,46.570211 26.476611,46.664559 26.433034,46.848216 26.098773,46.673957 25.873242,47.222513 25.704111,47.444608 25.520364,47.68762 25.318649,47.701253 25.041452,47.842203 25.475999,47.782404 25.742138,47.805963 26.167971,47.908468 25.841271,48.0366 25.500729,48.177921 25.173984,48.306064 25.46122,48.288972 25.639378,48.261278 25.902908,48.372329 26.026643,48.423569 26.292084,48.282504 26.433034,48.239797 26.765281,48.137292 26.654292,48.338295 26.896895,48.50486 27.103402,48.645804 27.266917,48.74223 27.493287,48.836189 27.653882,48.900252 27.916689,49.101253 28.089679,49.101253 28.188769,49.058545 28.329169,48.99228 28.421008,49.034987 28.494039,49.060603 28.531826,49.233785 28.619806,49.233785 28.925705,49.195339 29.194243,49.154583 29.481261,49.034987 29.650187,48.966651 29.784091,48.797618 29.945122,48.703658 30.158852,48.579797 30.361272,48.47265 30.541514,48.306064 30.795224,48.069446 30.680747,48.02573 30.541514,47.709671 30.489748,47.590074 30.971277,47.468166 31.071641,47.510874 31.368821,47.58861 31.538787,47.83392 31.402969,48.107266 31.360262,48.192691 31.108008,48.35316 31.137906,48.438595 31.159684,48.502661 31.308883,48.710126 31.270438,48.769924 31.167074,48.925391 31.04119,49.24672 30.939109,49.366316 30.706341,49.640947 30.540118,49.719258 30.872843,49.962708 31.022402,50.070341 31.041741,50.317724 31.071641,50.492835 30.533303,50.492835 29.951793,50.535541 29.414996,50.492835 28.944183,50.462936 28.447566,50.559101 27.957148,50.559101 28.029247,50.321632 27.224195,50.09524 27.029427,50.09524 26.856399,50.090978 26.622247,50.227772 26.433034,50.227772 26.240319,50.240579 26.084869,50.225693 25.902908,50.294037 25.70336,50.370927 25.535509,50.242785 25.372782,50.294037 25.294193,50.319664 25.126443,50.614743 25.041452,50.691632 24.862121,50.853932 24.943209,50.884216 25.041452,51.089227 25.083954,51.177637 25.131593,51.265986 25.173984,51.35429 25.127108,51.289157 25.077268,51.266607 24.975186,51.221759 24.737705,51.119253 24.693774,51.0548 24.577592,50.824164 24.457572,50.572169 24.360728,50.830377 24.246263,50.625366 24.129234,50.414376 24.387043,50.3409 24.511326,50.161506 24.560437,50.092742 24.422795,49.697645 24.378794,49.697645 24.262062,49.727545 23.992248,49.740479 23.914934,49.830176 23.794487,49.974111 23.669824,50.18727 23.517339,50.294037 23.384088,50.383716 23.156111,50.332732 23.18601,50.559101 23.36668,50.516393 23.535469,50.492835 23.716136,50.492835 23.452863,50.799925 23.288265,50.931186 22.920947,51.089227 22.707304,51.17892 22.454209,50.65113 22.125757,50.757897 21.746727,50.880051 21.932748,51.431413 21.728163,51.619353 21.565863,51.768841 21.366934,51.606798 21.396834,51.884416 21.418611,52.059958 21.441746,52.239432 21.463099,52.414543 21.297719,52.183049 21.114933,51.969709 20.932973,51.751885 21.131586,51.606669 21.225857,51.527203 21.264301,51.288024 21.293347,51.112908 21.417466,51.022834 21.529365,50.89043 21.385811,50.851985 20.925594,50.655393 20.800441,50.757897 20.659485,50.875353 20.55582,51.129983 20.469112,51.288024 20.458001,51.308099 20.667909,51.702838 20.667909,51.818151 20.667909,52.008214 20.622997,52.22234 20.601644,52.414543 20.250085,52.265054 20.206064,52.41843 20.071517,52.016948 19.993775,52.063939 19.883767,52.106772 19.806454,52.14948 19.816717,52.111039 19.992528,51.775444 20.005251,51.818151 19.901419,51.604592 19.454429,51.491211 19.276328,51.619353 19.362185,51.743214 19.455531,51.831086 19.541391,51.950682 19.301267,51.950682 18.886663,51.792641 18.679936,51.950682 18.43208,52.142026 18.297587,52.277997 18.149809,52.547074 18.093002,52.50863 17.856921,52.292762 17.81848,52.348278 17.706148,52.510576 17.68277,52.681811 17.487151,52.745872 17.231093,52.829587 16.761883,52.502035 16.55943,52.348278 16.401823,52.232943 16.297167,52.258453 16.09557,52.215745 15.889996,52.181578 15.480258,52.504495 15.366645,52.679606 15.118917,53.064007 15.151775,53.087824 14.703987,53.010935 14.751824,53.41455 14.732063,54.077914 15.035316,54.402517 15.245586,54.629309 15.361826,54.791738 15.499177,55.065175 15.595106,55.2578 15.863153,55.334634 16.029303,55.46277 16.275748,55.642158 16.37207,55.685105 16.691962,55.727833 16.855974,55.744918 16.93537,55.477655 17.089556,55.396504 17.336215,55.262393 17.706388,55.227347 17.619683,54.932643 17.534686,54.643918 17.537436,54.573366 17.81848,54.402517 18.083163,54.240213 18.231275,54.191038 18.481138,54.336251 18.753167,54.494293 18.892289,54.45377 19.210062,54.402517 19.400144,54.372618 19.35977,54.329657 19.342593,54.137453 19.334478,54.030665 19.533757,54.004922 19.607657,54.004922 19.853078,53.936578 20.019599,54.004922 20.270315,54.004922 20.650619,54.004922 20.973988,54.378958 21.396834,54.336251 21.647849,54.323443 21.882302,54.334173 22.125757,54.402517 22.251586,54.436678 22.393514,54.535049 22.523352,54.535049 22.864062,54.535049 23.023895,54.400439 23.384807,54.468782 23.659101,54.520034 23.915187,54.644149 24.179997,54.733846 24.051009,54.631351 23.977658,54.571288 23.848668,54.468782 24.122407,54.468782 24.311498,54.479534 24.577592,54.535049 24.925692,54.608083 24.837778,54.667836 24.643857,54.932643 24.901281,54.889936 25.114805,54.932643 25.372782,54.932643 25.489817,54.932643 25.59605,54.562742 25.704111,54.468782 25.749381,54.430359 25.916628,54.222995 25.969173,54.269986 26.005477,54.299884 26.12185,54.468782 26.167971,54.468782 26.261937,54.468782 26.488253,54.139532 26.565566,54.071188 26.452808,54.409881 26.341386,54.687121 26.167971,54.998909 26.409719,55.135597 26.486738,55.174148 26.764363,55.131441 26.921965,55.114348 27.033392,55.244824 27.161958,55.330238 26.990257,55.527133 26.88695,55.695994 26.764363,55.92663 26.684066,56.076118 26.436745,56.217458 26.300503,56.324225 26.511077,56.537782 26.458058,56.569886 26.698098,56.390491 26.882013,56.253818 27.112105,56.06758 27.29449,55.92663 27.590777,55.698555 27.9549,55.56307 28.288477,55.396504 28.123739,55.563076 27.989485,55.760065 27.824616,55.92663 27.66039,56.088929 27.28711,56.042198 27.161958,56.191694 27.126503,56.230117 27.206871,56.257959 27.228224,56.257959 27.143234,56.373277 27.012271,56.52315 26.963161,56.655554 26.927282,56.74952 27.006228,57.076708 26.896895,57.119415 26.56998,57.182627 26.422532,56.92683 26.167971,56.72182 26.358849,56.963136 26.909618,57.427574 26.896895,57.782073 26.892633,57.910207 26.624198,58.109246 26.698098,58.245934 26.763445,58.369788 26.926497,58.425583 27.029427,58.510996 27.240934,58.69037 27.503366,58.619969 27.75835,58.577263 27.62534,58.804911 27.810875,58.910924 27.75835,59.107389 27.681908,59.393558 27.637174,59.351225 27.890882,59.504984 27.954942,59.543422 27.890882,59.767969 27.890882,59.836313 27.890882,59.947362 28.082046,60.037315 28.155946,60.101376 28.246834,60.178244 28.634883,60.077817 28.752337,60.03511 28.977435,59.994106 28.957602,59.286784 29.0174,59.107389 29.068738,58.953631 28.903784,58.780216 29.0174,58.643528 29.132722,58.502582 29.228709,58.3826 29.348729,58.245934 29.579373,58.545337 29.161531,58.731536 29.216198,59.107389 29.516074,59.044177 29.76195,58.752374 30.011388,58.577263 29.985326,58.692582 29.970759,58.79754 29.945122,58.908592 30.037377,58.720663 30.262413,58.690392 30.342717,58.510996 30.399504,58.382874 30.415514,58.335631 30.541514,58.245934 30.711551,58.14769 30.935037,58.156109 31.137906,58.113402 31.074694,58.407679 30.998355,58.541155 30.806577,58.77606 30.935567,58.861474 31.075182,58.955709 31.204172,59.041123 30.995057,59.041123 30.736283,58.938618 30.541514,59.041123 30.366142,59.135079 30.259169,59.229296 30.077654,59.306186 29.670192,59.480872 29.630397,59.819616 29.547527,60.233908 29.482173,60.5615 28.969027,61.23669 29.348729,61.492958 29.411219,61.535667 29.691361,61.227894 29.878856,61.227894 30.083869,61.244977 30.141904,61.409728 30.276451,61.559223 30.100095,61.627546 29.935537,61.691755 29.746325,61.691755 29.486376,61.670402 29.469111,61.768878 29.282464,61.956819 29.152191,62.089223 29.028809,62.172835 28.884869,62.288148 28.779798,62.372715 28.737325,62.628149 28.686071,62.752008 28.763811,62.69221 28.807555,62.613009 28.884869,62.55321 29.149894,62.894896 29.24154,62.982783 29.680058,62.88454 29.972122,62.820475 30.089865,62.790325 30.342717,62.619477 30.510574,62.509283 30.663909,62.243108 30.806577,62.08935 30.968111,61.914237 31.095751,61.721527 31.270438,61.559223 31.445986,61.396924 31.734426,61.370923 31.866831,61.161629 32.046558,60.879731 32.136841,61.065591 32.396956,61.227894 32.598428,61.373107 32.845628,61.358221 33.059614,61.29416 33.25707,61.234366 33.426526,61.458924 33.523475,61.625489 33.727508,61.488802 33.792637,61.492958 34.053602,61.492958 33.977919,61.54891 33.401122,61.999525 33.324678,61.956819 33.218328,61.901283 33.110804,61.800728 32.993349,61.758021 32.893831,61.758021 32.667936,61.9097 32.595754,61.824287 32.468687,61.679075 32.133908,61.482462 31.999362,61.691755 31.761454,62.057786 31.713683,62.023343 32.065627,62.288148 31.875776,62.24544 31.6576,62.24544 31.469235,62.288148 31.15269,62.347941 31.172386,62.346126 31.005375,62.619477 30.872114,62.839008 30.81877,62.942387 30.607779,63.083337 30.465553,63.179864 30.401666,63.389156 30.342717,63.547198 30.311541,63.630911 30.082848,63.897802 30.143919,63.944793 30.374694,64.136995 30.362615,63.987627 30.607779,64.077324 30.769235,64.137118 30.699789,64.474919 30.806577,64.474919 30.923082,64.474919 30.992047,64.596398 31.071641,64.673716 31.02295,64.753585 31.492794,65.161135 31.535501,65.203843 31.187955,65.152588 31.174506,65.090851 31.005375,65.40264 30.85917,65.312953 30.753861,65.223012 30.607779,65.137577 30.589417,65.317387 30.55869,65.488308 30.541514,65.667704 30.250905,65.313193 30.187406,65.415575 29.746325,65.535172 29.86679,65.873869 29.974534,66.112668 29.878856,66.462893 29.638392,66.343303 29.599628,66.325834 29.547527,66.065298 29.415127,66.065298 29.111614,66.247131 29.282464,66.396627 29.444937,66.537573 29.634913,66.670364 29.81259,66.794222 29.717343,66.947979 29.580713,66.926754 29.414996,66.926754 29.315054,66.926754 29.211003,67.11921 29.149932,67.191816 29.017909,67.349832 28.734631,67.311668 28.55354,67.45688 28.47794,67.516676 28.248632,67.788209 28.155946,67.788209 28.050446,67.792493 27.93096,67.589412 27.824616,67.589412 27.5191,67.529617 27.336645,67.728538 27.161958,67.920741 27.101736,67.852397 27.023383,67.790287 26.963161,67.721943 26.84485,67.850077 26.72963,67.974326 26.631832,68.119538 26.575448,68.204959 26.497964,68.540691 26.433034,68.583399 26.309939,68.651736 26.004565,68.435854 25.902908,68.384601 25.755808,68.307733 25.65994,68.403876 25.505313,68.450867 25.523677,68.179228 25.713683,67.670438 25.439048,67.45688 25.156424,67.236496 24.959132,66.975678 24.710123,66.727956 24.311288,66.329891 24.299806,67.027444 24.312529,67.258083 24.337317,67.675367 24.514002,67.991534 24.179997,68.25207 23.651527,68.666792 24.454157,68.692632 24.577592,68.914728 24.688427,69.115896 24.217954,69.742149 24.113732,69.908714 23.89505,70.258515 24.476974,70.486078 24.312529,70.703905 24.02337,71.089151 24.069926,71.176694 24.312529,71.56536 24.429515,71.454311 24.832604,71.024736 25.041452,71.23403 25.323221,71.514627 25.510263,71.184729 25.770376,71.035233 26.03348,70.881476 26.412294,70.891845 26.631832,70.703905 27.002651,70.383585 27.066171,70.530992 27.493287,70.77017 27.806575,70.945273 28.06864,71.016085 28.421008,71.101499 28.643153,71.152751 29.018934,70.968968 29.282464,70.968968 29.838739,70.968968 30.537867,70.796995 30.740312,70.240043 31.159909,70.413024 31.324142,70.539658 31.601767,70.902701 31.811309,71.176056 32.02573,71.191197 32.330691,71.101499 32.611649,71.016077 32.855516,70.772249 33.125881,70.703905 33.374162,70.656914 33.729786,70.77017 33.987335,70.77017 34.112466,70.774443 33.983095,70.372576 33.987335,70.372576 34.009546,70.29998 34.122072,70.15022 34.186133,70.107512 34.530345,69.881144 34.694728,70.039295 34.981323,70.240043 L 34.384931,69.51112 34.649993,69.312322 34.848791,68.980993 35.312652,68.980993 35.842778,69.047259 36.571702,68.914728 35.909044,69.246057 35.445183,69.312322 35.18012,69.312322 35.113854,69.643651 35.312652,70.240043 35.842778,70.836436 C 36.014393,70.985932 36.292304,70.958344 36.505436,71.035233 37.096179,71.253058 37.55054,71.627736 38.029549,72.02922 38.061162,72.055699 38.198448,71.522653 38.228347,71.56536 L 38.559676,71.432828 38.692208,71.167765 38.891005,70.77017 38.692208,70.505107 38.758474,70.240043 38.957271,69.709918 38.957271,70.240043 39.222334,70.836436 39.023537,71.101499 38.824739,71.631626 38.427145,71.962955 38.294613,72.228018 39.089803,72.758144 39.354866,73.089473 C 39.538014,73.236397 39.788955,73.382484 39.951258,73.553334 40.149652,73.762617 40.32,74.124217 40.547651,74.282257 40.997958,74.594047 41.380438,75.050006 41.806701,75.408776 42.177778,75.721419 42.6734,76.223114 43.198282,76.1377 43.843313,76.026649 44.402202,75.962589 45.053725,76.1377 45.606966,76.288042 46.101581,76.501261 46.644104,76.667826 46.920705,76.753251 47.257405,76.84966 47.505559,76.999155 47.731716,77.135829 48.031668,77.385999 48.300749,77.330484 48.520287,77.28649 48.906726,77.666203 49.095939,77.794345 49.296171,77.931018 49.471084,78.089435 49.692331,78.19194 50.000324,78.324344 50.33523,78.439784 50.686318,78.324471 50.911113,78.247597 51.23591,78.016702 51.481508,78.059408 51.714763,78.085033 52.110619,78.313848 52.342963,78.390738 52.622636,78.501788 52.908417,78.457003 53.204418,78.457003 53.749982,78.457003 54.277013,78.018652 54.794797,77.860611 L 55.324924,77.529282 55.788785,77.39675 56.053848,77.330484 56.385177,77.330484 56.65024,77.264219 56.451443,77.197953 56.318911,76.866624 56.18638,76.800358 56.252645,76.999155 56.18638,77.065421 55.987582,76.734092 55.855051,76.535295 55.987582,76.535295 56.053848,76.535295 56.053848,76.336498 C 56.053848,76.336498 55.921613,76.246673 55.921316,76.203966 55.92085,76.182613 55.921316,76.071434 55.921316,76.071434 L 55.855051,76.005169 55.523722,75.938903 55.39119,75.806371 55.192393,75.740105 55.059861,75.740105 55.126127,75.67384 55.258658,75.607574 55.324924,75.67384 55.39119,75.740105 55.523722,75.806371 55.589987,75.806371 55.656253,75.740105 55.788785,75.806371 55.921316,75.806371 55.855051,75.607574 55.855051,75.475042 55.855051,75.408776 55.921316,75.408776 55.987582,75.541308 55.987582,75.67384 55.987582,75.806371 56.053848,75.938903 56.120114,76.071434 56.18638,76.1377 56.252645,76.071434 56.318911,76.071434 56.318911,76.203966 56.318911,76.402763 56.318911,76.601561 56.385177,76.601561 C 56.385177,76.601561 56.376695,76.458299 56.385177,76.402763 56.393807,76.347227 56.451612,76.246673 56.451443,76.203966 56.451443,76.182613 56.385177,76.071434 56.385177,76.071434 L 56.318911,75.938903 56.318911,75.806371 56.252645,75.607574 C 56.252645,75.607574 56.054018,75.451484 56.053848,75.408776 56.053423,75.38314 55.987582,75.209979 55.987582,75.209979 55.987582,75.209979 55.863533,75.18642 55.855051,75.143713 55.846929,75.118076 55.760964,75.120155 55.722518,75.077447 55.683205,75.047548 55.673429,74.987623 55.656253,74.944915 55.640455,74.923563 55.540897,74.921357 55.523722,74.87865 55.509111,74.844488 55.523722,74.746118 55.523722,74.746118 L 55.656253,74.87865 55.656253,74.944915 55.722518,74.944915 C 55.722518,74.944915 55.785435,75.011182 55.855051,75.011182 55.924667,75.011182 55.987582,75.077447 55.987582,75.077447 L 56.120114,75.143713 56.252645,75.342511 56.318911,75.475042 56.451443,75.67384 56.517708,75.872636 56.517708,76.071434 56.583974,76.270232 56.517708,76.402763 56.451443,76.601561 56.385177,76.734092 56.451443,76.93289 56.583974,77.065421 56.716506,77.065421 56.782772,77.065421 57.114101,76.93289 57.180366,76.93289 57.312899,76.800358 57.44543,76.667826 57.577961,76.601561 57.843024,76.535295 58.108088,76.270232 58.373151,76.1377 58.571949,75.872636 58.770746,75.67384 58.969543,75.408776 59.035809,75.209979 59.102074,74.944915 59.168341,74.679853 59.168341,74.613586 58.969543,74.613586 58.770746,74.613586 58.571949,74.481055 58.439417,74.348524 58.70448,74.481055 58.903278,74.481055 59.035809,74.414789 59.234607,74.282257 59.367138,74.215992 59.433403,74.149726 59.565936,73.950928 59.632201,73.752132 C 59.632201,73.752132 59.74338,73.68366 59.764733,73.619599 59.786956,73.559801 59.830999,73.487068 59.830999,73.487068 L 59.96353,73.420803 60.029796,73.222005 59.96353,73.023207 60.029796,72.890676 59.830999,72.758144 59.565936,72.426815 59.168341,72.161752 58.969543,71.896689 58.70448,71.764157 58.638214,71.56536 58.505682,71.499094 58.306885,71.300297 58.108088,71.300297 58.24062,71.167765 58.439417,71.300297 58.638214,71.499094 58.638214,71.56536 58.837012,71.697891 59.102074,71.896689 59.367138,72.095486 59.49967,72.294284 59.565936,72.426815 59.698467,72.493081 59.897264,72.625613 60.096062,72.758144 60.162328,73.089473 60.493657,72.82441 C 60.493657,72.82441 60.671101,72.691878 60.692454,72.691878 60.715525,72.691878 61.023783,72.559347 61.023783,72.559347 L 61.023783,72.360549 61.156315,72.228018 61.156315,72.360549 61.156315,72.493081 61.487644,72.294284 62.415365,71.962955 62.48163,71.962955 C 62.48163,71.962955 62.592809,71.87313 62.614163,71.830423 62.636809,71.80907 62.614163,71.631626 62.614163,71.631626 L 62.614163,71.366562 62.746694,71.499094 62.680428,71.697891 62.680428,71.830423 C 62.680428,71.830423 62.659075,71.897115 62.680428,71.896689 62.703923,71.896689 62.945492,71.830423 62.945492,71.830423 L 63.210555,71.56536 C 63.210555,71.56536 63.246921,71.764157 63.27682,71.764157 63.307568,71.751349 64.07201,71.697891 64.07201,71.697891 L 64.602136,71.697891 64.8672,71.697891 C 64.8672,71.697891 64.773113,71.680672 64.734668,71.56536 64.69546,71.4714 64.668402,71.432828 64.668402,71.432828 L 64.469605,71.631626 64.337073,71.631626 64.204542,71.432828 64.07201,71.631626 64.005744,71.499094 63.939478,71.499094 63.939478,71.366562 64.138276,71.101499 64.204542,70.968968 64.138276,70.902701 64.07201,71.101499 63.939478,71.23403 63.806947,71.432828 63.873213,71.101499 63.939478,70.836436 64.07201,70.77017 64.07201,70.505107 63.939478,70.240043 64.005744,70.107512 64.07201,69.842449 64.138276,69.908714 64.138276,70.107512 64.138276,70.240043 64.204542,70.107512 64.337073,70.041247 64.403339,69.908714 64.469605,69.908714 64.535871,69.97498 64.535871,70.173778 64.403339,70.240043 64.403339,70.571372 64.337073,70.505107 64.270807,70.703905 64.337073,70.836436 64.469605,70.836436 64.469605,70.703905 C 64.469605,70.703905 64.527388,70.547814 64.535871,70.505107 64.543144,70.47947 64.668402,70.372576 64.668402,70.372576 L 64.800934,70.372576 64.8672,70.306309 64.933465,70.107512 64.999731,69.908714 64.999731,70.173778 64.933465,70.372576 64.8672,70.637639 65.132263,70.505107 65.132263,69.776183 65.33106,69.378588 65.264794,69.709918 65.264794,70.041247 65.264794,70.173778 C 65.264794,70.173778 65.309707,70.282751 65.33106,70.240043 65.353707,70.210145 65.45511,70.083953 65.463592,70.041247 65.471268,70.01989 65.397326,69.842449 65.397326,69.842449 L 65.463592,69.577386 C 65.463592,69.577386 65.45511,69.421295 65.463592,69.378588 L 65.596123,69.113525 C 65.596123,69.113525 65.587642,69.402147 65.596123,69.444854 65.600301,69.467917 65.596123,70.041247 65.596123,70.041247 65.596123,70.041247 65.641036,70.017687 65.66239,69.97498 65.685015,69.945081 65.794921,69.776183 65.794921,69.776183 L 65.794921,69.643651 65.861186,69.776183 65.927452,69.97498 65.993719,70.173778 66.059984,69.908714 66.192515,70.107512 66.192515,70.306309 66.258781,70.306309 66.325048,70.107512 66.457579,70.107512 66.523844,70.306309 66.523844,70.505107 66.590111,70.637639 66.722642,70.836436 66.788908,70.968968 66.855173,71.035233 66.92144,71.23403 66.987705,71.432828 67.053971,71.300297 67.053971,70.836436 67.053971,70.703905 67.186502,70.77017 67.186502,71.167765 67.186502,71.23403 67.319034,71.167765 67.319034,70.902701 67.3853,70.703905 67.517832,70.571372 67.650363,70.438841 C 67.650363,70.438841 67.819262,70.439696 67.849161,70.438841 L 67.782895,70.306309 67.981692,70.372576 68.246756,70.306309 68.64435,70.041247 68.843148,69.908714 C 68.843148,69.908714 68.903497,69.914845 68.909414,69.908714 68.938952,69.878063 69.027632,69.745506 69.041945,69.709918 69.057318,69.688564 69.174477,69.577386 69.174477,69.577386 L 69.307008,69.444854 69.373275,69.312322 C 69.373275,69.312322 69.418187,69.246911 69.43954,69.246057 69.462611,69.245631 69.572071,69.246057 69.572071,69.246057 L 69.505806,69.312322 69.373275,69.51112 69.240742,69.643651 69.108211,69.776183 68.909414,69.908714 68.843148,70.041247 68.776882,70.173778 68.975679,70.041247 69.108211,69.842449 C 69.108211,69.842449 69.219389,69.776609 69.240742,69.776183 69.263813,69.77192 69.373275,69.709918 69.373275,69.709918 L 69.43954,69.51112 C 69.43954,69.51112 69.550718,69.378588 69.572071,69.378588 69.595143,69.361497 69.68325,69.179791 69.704604,69.179791 69.727674,69.166979 69.969666,68.848462 69.969666,68.848462 L 70.035933,68.71593 70.234729,68.450867 70.367261,68.25207 70.168464,68.384601 70.234729,68.25207 70.102198,67.987006 70.499793,67.987006 70.433527,68.119538 70.499793,68.119538 70.632325,68.053272 70.831122,67.920741 70.963654,67.721943 71.228716,67.655677 71.427514,67.390614 71.560046,67.258083 71.692577,67.191816 71.957641,66.926754 72.222704,66.595425 72.554033,66.264095 73.017893,65.866501 C 73.272079,65.599987 73.753539,65.449504 74.078146,65.270108 74.250141,65.17614 74.524831,65.227141 74.542007,65.005045 74.564632,64.734687 74.723479,64.712034 74.939601,64.541185 75.260243,64.284915 75.737294,64.252562 76.132386,64.209856 76.348678,64.192771 76.492512,64.081481 76.662512,63.944793 76.887583,63.767542 77.072364,63.784177 76.927576,63.480931 76.845237,63.310093 77.179088,63.160227 77.32517,63.083337 77.388807,63.049591 77.27608,62.638625 77.258905,62.55321 77.648823,62.855175 77.953328,63.173162 78.451689,63.215869 78.435021,63.360228 78.468865,63.534517 78.451689,63.679729 78.754519,63.405526 78.626864,63.343746 78.517955,62.950806 78.740184,63.117392 78.862346,63.369627 79.114347,63.215869 79.366306,63.05784 79.340668,63.1883 79.511942,63.414666 79.665148,63.617115 79.834492,63.795297 80.042068,63.944793 80.232575,64.081463 80.140438,63.788702 80.1746,63.745995 80.233974,63.677672 80.304205,63.673262 80.373397,63.613464 80.536125,63.47252 80.687508,63.226365 80.572195,63.017071 80.457285,62.81078 80.629554,62.567969 80.704726,62.354413 80.846695,61.950794 81.404917,61.826238 81.764979,61.625489 82.062762,61.458925 82.428379,61.375312 82.758966,61.29416 82.919213,61.251454 83.063089,61.204336 83.222827,61.161629 83.387696,61.118931 83.238264,61.048267 83.289092,60.962831 83.35487,60.851784 83.712303,60.62283 83.686688,60.498971 83.636326,60.254665 83.557697,60.049871 83.686688,59.836313 83.838643,59.58432 83.819219,59.472629 83.819219,59.173655 83.819219,58.972915 83.89331,58.938363 84.018017,58.77606 84.115475,58.648778 84.791365,57.897386 84.74694,57.782073 84.558576,57.920026 84.354774,58.057993 84.216813,58.245934 84.153474,58.332634 83.843923,58.818767 83.752953,58.77606 83.635498,58.724807 83.540415,58.758842 83.48789,58.643528 83.460132,58.583732 83.430107,58.378465 83.355359,58.378465 83.007426,58.43399 83.075155,58.412374 82.891498,58.113402 83.066694,58.045075 83.43933,57.805632 83.620421,57.848338 83.961293,57.908137 84.039625,57.959261 84.28308,57.715807 84.380029,57.618427 84.278266,57.179213 84.150548,57.119415 83.875052,56.991283 83.856307,57.003709 83.752953,56.72182 83.835822,56.700467 84.081356,56.538036 84.150548,56.589288 84.290205,56.691794 84.372586,56.854352 84.548142,56.854352 84.780699,56.837282 84.81681,56.850196 85.012004,56.986884 85.154247,57.085122 85.216908,56.956857 85.343332,56.854352 84.973199,56.437922 84.512497,56.299301 84.349346,55.727833 84.311749,55.595429 84.255259,55.462643 84.216813,55.330238 84.180087,55.193571 83.956395,55.216855 83.885485,55.131441 83.820513,55.052424 83.836395,54.770086 83.819219,54.66758 83.805563,54.582166 83.614379,54.528581 83.554156,54.468782 83.671992,54.468782 83.984343,54.413268 84.084282,54.468782 84.109877,54.485853 84.045838,54.624873 84.084282,54.66758 84.150929,54.727378 84.216877,54.744597 84.28308,54.800111 84.521594,55.004696 84.558576,55.339038 84.74694,55.595301 85.097311,56.075367 85.710774,56.247103 86.271054,56.059162 86.611162,55.943843 86.913037,55.817397 87.198775,55.595301 87.438392,55.409083 87.238005,55.131184 87.132509,54.866378 86.980893,54.47771 87.530358,54.468782 87.795167,54.468782 87.970702,54.468782 87.927041,54.321365 88.126496,54.402517 88.30076,54.47084 88.317299,54.393844 88.457825,54.269986 88.100541,54.278953 87.630722,53.852988 87.331306,53.673593 87.556992,53.682139 87.768448,53.673593 87.993965,53.673593 88.144139,53.686422 88.256229,53.923643 88.457825,53.87239 88.73417,53.803629 89.168067,53.342005 88.85542,53.077201 88.465289,52.746192 88.311552,52.570634 87.795167,52.61334 87.398081,52.632563 87.101507,52.501908 86.867446,52.215745 87.159079,51.940686 87.260588,52.348278 87.530104,52.348278 87.825406,52.343994 88.208326,52.16462 88.39156,52.348278 88.737859,52.696371 89.628768,52.658891 89.584344,52.016948 89.166965,52.068203 88.911126,52.046588 88.590356,51.751885 88.335578,51.516549 88.044115,51.110453 87.728902,50.956695 87.405397,50.781584 86.877815,50.693837 86.536117,50.757897 86.202328,50.819827 85.604494,50.790827 85.54213,50.360303 85.671587,50.411556 86.370336,50.640252 86.469851,50.559101 86.73625,50.341284 86.93914,50.214837 87.265041,50.09524 87.112555,49.907741 87.003031,49.817106 87.066244,49.565114 87.195234,49.659069 87.364323,49.772584 87.463838,49.896443 87.613334,50.075831 87.649149,50.009826 87.861433,50.09524 88.164601,50.213549 88.328475,50.518715 88.524091,50.757897 88.741443,51.026981 88.922852,51.155493 89.253015,51.155493 89.560827,51.155493 89.824385,51.17879 90.048204,50.956695 90.176431,50.832836 90.096043,50.725666 90.048204,50.559101 90.028547,50.486495 90.259025,50.341028 90.313268,50.294037 90.57638,50.072798 90.750283,49.95598 90.843394,49.631379 90.889939,49.46908 90.686816,49.353381 90.578331,49.233785 90.520229,49.169716 90.627421,48.979345 90.644597,48.902455 90.69585,48.628681 90.644597,48.318621 90.644597,48.041 90.432525,48.279754 90.304234,48.453864 90.247002,48.769924 90.18977,49.082991 90.060397,49.197674 89.849407,49.432582 89.829771,49.345026 89.791199,48.637393 89.716875,48.637393 89.401238,48.581856 89.224091,48.722933 88.921686,48.769924 89.073217,48.573461 89.157889,48.536837 89.385546,48.438595 89.505695,48.387343 89.877228,48.350848 89.915673,48.239797 89.95505,48.117217 90.030923,47.741648 89.849407,47.643405 89.776885,47.60496 89.491466,47.775937 89.385546,47.775937 89.172287,47.814381 88.937717,47.799495 88.722888,47.842203 88.588766,47.859272 88.46881,47.775937 88.325294,47.775937 87.939446,47.775937 87.578048,47.790823 87.198775,47.709671 87.535384,47.611451 87.845084,47.444608 88.192762,47.444608 88.484523,47.444608 88.76549,47.487314 89.054217,47.444608 89.801759,47.33228 90.013916,46.861305 90.379533,46.251823 90.10092,46.273179 89.88289,45.963202 89.584344,45.920494 89.280199,45.88205 89.083862,46.13844 88.789154,46.053026 88.156119,45.868088 87.771968,46.213506 87.198775,46.384355 87.325709,46.078544 87.35213,46.097811 87.662635,45.98676 87.862048,45.914146 87.971508,45.655431 88.192762,45.655431 88.446671,45.655431 88.675665,45.591243 88.921686,45.5229 89.181808,45.45456 89.20647,45.38157 89.253015,45.125304 88.84662,45.106941 88.518217,44.954076 88.192762,44.72771 88.584674,44.766154 88.928896,44.853774 89.319281,44.793975 89.514473,44.764081 89.655253,44.629212 89.584344,44.462647 89.504909,44.277282 89.827736,44.13119 89.518078,43.998786 89.720946,43.871078 89.96472,43.74628 89.849407,43.46866 89.746902,43.222219 89.749532,43.019558 89.915673,42.806002 90.00713,42.686836 90.126366,42.337752 90.048204,42.20961 89.882784,41.94053 89.8162,41.843992 89.518078,41.745748 89.626139,41.617616 89.636381,41.516925 89.518078,41.414419 89.337962,41.692057 89.218238,41.331326 89.054217,41.613217 88.914667,41.856673 88.891893,41.987253 88.590356,41.944546 88.612983,41.793352 88.726663,41.4271 88.656623,41.281888 88.560309,41.089685 88.139219,41.132138 88.126496,41.016825 88.103871,40.833171 88.178364,40.862813 88.325294,40.751762 88.372178,40.713324 88.37996,40.595671 88.325294,40.552965 88.129041,40.433374 87.987858,40.351834 87.861433,40.155369 87.729029,40.327495 87.616324,40.465473 87.463838,40.61923 87.421597,40.661937 87.017429,40.529406 86.933712,40.486698 86.526024,40.377785 86.209177,40.071764 85.873459,39.82404 85.557185,39.59084 85.195957,39.39629 84.879472,39.161382 84.711613,39.037096 84.613433,38.859825 84.481877,38.697522 84.284564,38.455358 84.333294,38.464296 84.548142,38.233661 84.711719,38.058545 85.136371,37.395765 84.680675,37.438471 84.16484,37.48118 83.88364,37.658883 83.421624,37.902332 83.128698,38.05609 82.721921,37.827648 82.427638,37.968598 82.005211,38.171475 81.591013,38.359979 81.168587,38.56499 81.115192,38.244234 81.175182,38.175682 81.367384,37.902332 81.533547,37.666996 81.580771,37.592103 81.632448,37.30594 81.365921,37.607051 81.103784,37.86415 80.837257,38.167396 80.633265,37.806918 81.285384,37.60919 81.367384,37.30594 81.414353,37.136804 81.203809,36.961676 81.367384,36.84208 81.503203,36.743847 81.623181,36.666713 81.764979,36.577016 81.824353,36.538571 81.980953,36.455109 81.963776,36.378219 81.950905,36.322704 81.846258,36.222128 81.897511,36.179421 82.01838,36.089745 82.178075,36.008318 82.295105,35.914359 82.583792,35.678165 82.584279,35.373235 82.758966,35.052903 82.876845,34.837215 82.936219,34.25538 82.758966,34.058916 82.504823,33.776598 82.462965,33.46861 82.295105,33.131195 82.127161,32.798042 81.860889,32.757286 81.566182,32.932397 81.341938,33.064799 81.204953,33.069458 81.234853,33.329992 81.245964,33.432499 81.04369,33.592977 80.96979,33.661321 80.752989,33.328175 80.702203,33.208063 80.307132,33.131195 79.965602,33.067134 79.659529,32.998663 79.313145,32.998663 79.477166,32.732147 79.535501,32.581526 79.578207,32.269739 79.46194,32.269739 79.124525,32.288887 79.048082,32.203474 78.982727,32.132146 78.686069,31.921191 78.783018,31.805878 78.951005,31.609401 79.128703,31.547155 79.37941,31.474549 79.57051,31.419026 79.700625,31.209359 79.843271,31.076955 80.083821,30.851443 80.552855,30.704601 80.439663,30.281765 80.33404,29.885836 80.310885,29.542112 79.843271,29.486576 79.852961,29.187173 80.406541,28.947776 80.638461,28.823918 80.814293,28.729945 80.987071,28.640006 81.168587,28.558854 81.277517,28.507601 81.366663,28.300131 81.499916,28.227525 81.85211,28.039595 82.206935,28.049954 82.560169,27.896196 82.703685,27.83641 82.738164,27.67384 82.891498,27.631133 83.110588,27.584151 83.16992,27.571081 83.289092,27.36607 83.071741,27.323362 82.843829,27.299804 82.626434,27.299804 82.497444,27.29126 82.383467,27.564867 82.22884,27.564867 81.762774,27.615694 81.537619,27.444891 81.168587,27.167272 80.997229,27.036577 80.294197,27.379005 80.1746,27.498601 80.022539,27.649797 79.919291,27.761714 79.843271,27.962462 79.779211,28.131169 79.700794,28.293918 79.578207,28.426322 79.271582,28.760319 79.129339,29.016501 78.716753,29.221512 78.542701,29.306947 78.308725,29.307053 78.12036,29.354043 78.03554,29.375397 77.690661,29.219434 77.656499,29.287778 77.584741,29.430859 77.423541,29.589335 77.457702,29.751639 77.495702,29.9417 77.573058,30.155828 77.590234,30.348031 77.630375,30.756774 77.316137,31.006804 77.258905,31.408284 77.087589,31.179782 76.862773,30.711337 76.596247,30.613094 76.361337,30.527673 76.358877,30.384143 76.264918,30.149233 76.228614,30.059557 75.962576,30.031587 75.867322,29.950436 75.644246,29.762502 75.027221,30.126574 75.005868,29.685372 74.993484,29.424839 75.058222,29.294118 74.80707,29.221512 74.593069,29.161718 74.542727,29.07384 74.409475,28.890183 74.752785,28.731726 75.204177,28.323302 75.138399,27.896196 75.116197,27.753543 75.102817,27.31469 75.005868,27.233539 74.791505,27.054156 74.670022,26.934187 74.409475,26.835943 74.216721,26.763337 74.00272,26.78028 73.813083,26.703412 73.689648,26.652159 73.771457,26.57088 73.614285,26.57088 73.555759,26.57088 73.300133,26.634941 73.282956,26.57088 73.237259,26.398328 73.156044,26.091879 73.216691,25.908222 73.266417,25.759161 73.501962,25.555412 73.614285,25.444362 73.414958,25.333313 73.140055,25.243231 73.017893,25.046766 72.896727,24.850291 72.649158,24.691879 72.421501,24.649172 72.438169,24.734588 72.470591,24.828821 72.487767,24.914235 72.390244,24.875794 71.762554,24.582906 71.626312,24.582906 z M 64.469605,70.836436 64.403339,71.167765 64.403339,71.23403 C 64.403339,71.23403 64.448251,71.276738 64.469605,71.23403 64.490959,71.199863 64.469605,70.836436 64.469605,70.836436 z M 59.168341,74.613586 59.300872,74.547321 59.433403,74.348524 59.433403,74.282257 59.367138,74.282257 59.234607,74.481055 59.168341,74.613586 z M 68.578085,70.372576 68.511819,70.438841 68.445553,70.505107 68.313021,70.571372 68.313021,70.703905 68.445553,70.77017 C 68.445553,70.77017 68.494642,70.680345 68.511819,70.637639 68.526769,70.612001 68.578085,70.505107 68.578085,70.505107 L 68.578085,70.372576 z M 55.523722,76.270232 55.656253,76.336498 55.722518,76.469029 55.523722,76.402763 55.192393,76.402763 55.324924,76.336498 55.523722,76.270232 z"
     id="rect3816" /></svg>