<?xml version="1.0" encoding="UTF-8" standalone="no"?>
<!-- Generator: Adobe Illustrator 15.0.2, SVG Export Plug-In . SVG Version: 6.00 Build 0)  -->

<svg
   xmlns:dc="http://purl.org/dc/elements/1.1/"
   xmlns:cc="http://creativecommons.org/ns#"
   xmlns:rdf="http://www.w3.org/1999/02/22-rdf-syntax-ns#"
   xmlns:svg="http://www.w3.org/2000/svg"
   xmlns="http://www.w3.org/2000/svg"
   xmlns:sodipodi="http://sodipodi.sourceforge.net/DTD/sodipodi-0.dtd"
   xmlns:inkscape="http://www.inkscape.org/namespaces/inkscape"
   version="1.1"
   id="Ebene_1"
   x="0px"
   y="0px"
   width="100px"
   height="100px"
   viewBox="0 0 100 100"
   enable-background="new 0 0 100 100"
   xml:space="preserve"
   inkscape:version="0.48.4 r9939"
   sodipodi:docname="christianity.svg"><metadata
     id="metadata3302"><rdf:RDF><cc:Work
         rdf:about=""><dc:format>image/svg+xml</dc:format><dc:type
           rdf:resource="http://purl.org/dc/dcmitype/StillImage" /><dc:title></dc:title></cc:Work></rdf:RDF></metadata><defs
     id="defs3300" /><sodipodi:namedview
     pagecolor="#ffffff"
     bordercolor="#666666"
     borderopacity="1"
     objecttolerance="10"
     gridtolerance="10"
     guidetolerance="10"
     inkscape:pageopacity="0"
     inkscape:pageshadow="2"
     inkscape:window-width="1366"
     inkscape:window-height="744"
     id="namedview3298"
     showgrid="false"
     inkscape:zoom="4.72"
     inkscape:cx="75.428405"
     inkscape:cy="49.480868"
     inkscape:window-x="0"
     inkscape:window-y="24"
     inkscape:window-maximized="1"
     inkscape:current-layer="Ebene_1" /><circle
     fill="#B2B2B2"
     cx="50"
     cy="50"
     r="50"
     id="circle3278" /><path
     inkscape:connector-curvature="0"
     style="fill:#222222;fill-opacity:1;stroke:none"
     d="M 66.631542,20.204978 C 66.631542,20.204978 66.712045,38.076983 66.631542,46.860317 66.630043,47.074717 66.569447,47.252307 66.31438,47.252307 66.25718,47.237867 66.195574,47.181404 66.124082,47.10531 63.598949,44.523025 61.075925,41.962456 58.575629,39.363503 58.246822,39.001905 57.705994,39.004685 57.370412,39.363503 54.815192,41.940792 52.251068,44.457796 49.695093,47.007314 49.490435,47.219505 49.196729,47.223386 48.997338,47.007314 46.50908,44.41003 44.024647,41.818236 41.512315,39.216507 41.182753,38.854363 40.579246,38.860466 40.243667,39.216507 37.692208,41.7738 35.200544,44.340359 32.63178,46.909316 32.427873,47.123174 32.071484,47.075851 31.870591,46.860317 29.352991,44.273033 26.76855,41.702464 24.195272,39.118509 23.857434,38.758578 23.333159,38.75911 22.990057,39.118509 20.514591,41.601371 18.003074,44.131469 15.505035,46.664322 14.78281,47.489164 14.807278,47.749476 14.807278,48.183284 L 14.807278,75.769598 80.269506,75.769598 80.269506,20.204978 66.631542,20.204978 z"
     id="rect6267" /></svg>