<?xml version="1.0" encoding="UTF-8" standalone="no"?>
<!-- Generator: Adobe Illustrator 15.0.2, SVG Export Plug-In . SVG Version: 6.00 Build 0)  -->

<svg
   xmlns:dc="http://purl.org/dc/elements/1.1/"
   xmlns:cc="http://creativecommons.org/ns#"
   xmlns:rdf="http://www.w3.org/1999/02/22-rdf-syntax-ns#"
   xmlns:svg="http://www.w3.org/2000/svg"
   xmlns="http://www.w3.org/2000/svg"
   xmlns:sodipodi="http://sodipodi.sourceforge.net/DTD/sodipodi-0.dtd"
   xmlns:inkscape="http://www.inkscape.org/namespaces/inkscape"
   version="1.1"
   id="Ebene_1"
   x="0px"
   y="0px"
   width="100px"
   height="100px"
   viewBox="0 0 100 100"
   enable-background="new 0 0 100 100"
   xml:space="preserve"
   inkscape:version="0.48.4 r9939"
   sodipodi:docname="idnadur.svg"><metadata
     id="metadata3302"><rdf:RDF><cc:Work
         rdf:about=""><dc:format>image/svg+xml</dc:format><dc:type
           rdf:resource="http://purl.org/dc/dcmitype/StillImage" /><dc:title></dc:title></cc:Work></rdf:RDF></metadata><defs
     id="defs3300" /><sodipodi:namedview
     pagecolor="#ffffff"
     bordercolor="#666666"
     borderopacity="1"
     objecttolerance="10"
     gridtolerance="10"
     guidetolerance="10"
     inkscape:pageopacity="0"
     inkscape:pageshadow="2"
     inkscape:window-width="1366"
     inkscape:window-height="744"
     id="namedview3298"
     showgrid="false"
     inkscape:zoom="4.72"
     inkscape:cx="75.428405"
     inkscape:cy="49.480868"
     inkscape:window-x="0"
     inkscape:window-y="24"
     inkscape:window-maximized="1"
     inkscape:current-layer="Ebene_1" /><circle
     fill="#B2B2B2"
     cx="50"
     cy="50"
     r="50"
     id="circle3278" /><path
     inkscape:connector-curvature="0"
     style="fill:#222222;fill-opacity:1;stroke:none"
     d="M 54.753317,15.078417 54.753317,17.510941 57.185841,17.510941 57.185841,28.051876 46.832022,28.051876 45.335085,28.051876 45.335085,20.068209 44.648988,20.068209 44.648988,28.051876 43.962892,28.051876 43.962892,15.951631 43.65103,15.951631 43.65103,28.051876 39.222589,28.051876 36.852438,25.55698 21.384083,25.55698 31.925018,39.403653 46.832022,39.403653 64.982391,39.403653 75.835188,39.403653 C 77.1002,39.403653 78.142967,38.360571 78.142967,37.095874 L 78.142967,35.16233 78.142967,34.725723 78.142967,30.297283 78.142967,28.051876 76.39654,28.051876 75.835188,28.051876 74.83723,28.051876 74.83723,17.510941 74.83723,15.078417 C 68.147236,15.078334 61.443311,15.078417 54.753317,15.078417 z M 66.042722,19.881092 C 67.552325,19.881092 68.724735,21.115467 68.724735,22.625478 68.724735,24.135486 67.552325,25.307491 66.042722,25.307491 64.533118,25.307491 63.298336,24.135486 63.298336,22.625478 63.298336,21.115467 64.533118,19.881092 66.042722,19.881092 z M 30.989432,41.586687 C 30.50172,41.612285 30.263102,42.025324 30.240964,42.771763 L 29.679612,43.083625 29.492495,43.270742 29.430122,43.270742 29.430122,43.395487 29.430122,43.457859 29.430122,44.206328 29.430122,44.393445 28.245047,44.019211 28.245047,44.143956 C 28.236053,44.136347 28.193051,44.081583 28.182674,44.081583 28.078214,44.081583 27.800137,44.589979 27.80844,45.204287 27.816741,45.817903 28.139203,46.32699 28.245047,46.32699 L 28.245047,46.389362 28.494536,46.264617 29.243005,46.0775 29.305378,46.015128 28.307419,56.99267 28.120302,56.99267 28.120302,57.179787 28.120302,58.489608 28.120302,58.676725 27.621323,58.676725 24.066096,62.294324 24.066096,62.356697 23.754234,62.730931 23.629489,62.855676 24.253213,62.980421 23.629489,62.918048 23.504744,63.105165 23.504744,63.167538 23.068138,63.666517 22.132552,65.537689 21.446455,67.90784 21.633572,67.970213 21.758317,68.032585 22.382041,65.662434 23.317627,63.853634 23.941351,63.105165 25.064054,63.292283 25.687778,63.916007 C 25.722368,63.879342 25.777934,63.825851 25.812523,63.791262 L 26.186758,64.227869 C 26.141792,64.271451 26.107669,64.307647 26.062013,64.352613 24.039918,66.375401 22.756276,69.186461 22.756276,72.273908 22.756276,75.359282 24.039918,78.110043 26.062013,80.132831 28.084799,82.155619 30.834178,83.438568 33.920935,83.438568 37.006309,83.438568 39.819442,82.154926 41.84223,80.132831 43.507364,78.467697 44.672486,76.277304 45.023223,73.833218 L 45.459829,73.895591 C 45.454987,73.921186 45.465364,73.99474 45.459829,74.020336 L 45.459829,74.14508 46.395415,74.14508 46.76965,74.39457 46.76965,74.14508 46.956767,74.14508 47.081512,74.332198 47.518119,74.332198 47.642863,74.207453 47.767608,74.207453 47.767608,74.456942 47.892353,74.456942 48.017098,74.332198 48.017098,74.64406 48.017098,74.706432 48.204215,74.706432 48.204215,77.014211 48.017098,77.014211 48.017098,77.2637 48.017098,77.51319 48.017098,77.637935 48.204215,77.637935 48.204215,78.012169 48.204215,78.074542 48.391332,78.136914 48.578449,78.074542 48.703194,78.074542 48.703194,77.637935 52.632655,77.637935 52.632655,78.074542 52.819773,78.136914 53.00689,78.136914 53.131635,78.074542 53.131635,77.637935 53.381124,77.637935 53.381124,77.326073 53.318752,77.076583 53.318752,77.014211 53.131635,77.014211 53.131635,75.080666 53.131635,74.831177 53.318752,74.831177 53.318752,75.454901 53.755359,75.454901 53.755359,75.392528 54.878062,75.392528 54.878062,75.579646 55.501786,75.579646 55.501786,75.205411 55.626531,75.205411 55.626531,74.955922 56.000765,74.955922 56.000765,74.893549 56.187882,74.893549 56.187882,74.768804 56.374999,74.768804 56.374999,75.080666 56.499744,75.080666 56.499744,74.768804 56.873979,74.768804 56.873979,74.893549 56.686861,74.893549 56.686861,75.018294 56.873979,75.018294 56.873979,75.080666 57.185841,75.018294 57.372958,75.018294 C 57.498862,75.014835 57.598926,74.886408 57.622447,74.768804 L 57.809565,74.768804 62.11326,74.64406 C 61.953457,75.957073 62.135599,77.294406 62.612239,78.573521 L 62.861729,78.635893 62.861729,78.760638 62.924101,78.760638 62.986474,78.82301 62.924101,80.569438 62.736984,82.19112 63.111219,82.004003 63.298336,80.319948 63.298336,78.82301 C 62.910934,77.89048 62.674612,76.839035 62.674612,75.766763 62.674612,75.319869 62.72741,74.883775 62.799357,74.456942 L 62.986474,74.519315 C 62.924904,74.911558 62.861729,75.29416 62.861729,75.70439 62.861729,77.808117 63.727711,79.6883 65.107136,81.068417 66.485869,82.44715 68.428425,83.313823 70.533534,83.313823 72.638646,83.313823 74.518137,82.447843 75.897561,81.068417 77.276294,79.6883 78.142967,77.808117 78.142967,75.70439 78.14435,73.599971 77.276987,71.657416 75.897561,70.277992 75.373186,69.754309 74.747342,69.322366 74.088761,68.968171 L 74.088761,68.718681 C 74.116433,68.731827 74.185835,68.704155 74.213506,68.718681 74.248788,68.736667 74.241289,68.763069 74.275878,68.781054 L 75.211464,60.173663 75.211464,59.861801 75.149092,59.799428 74.899602,59.799428 74.899602,59.425194 74.899602,59.050959 74.83723,58.988587 65.606115,58.988587 65.606115,54.373029 64.920018,54.061167 64.670529,54.061167 64.670529,43.832094 64.795273,43.582604 64.982391,43.333115 65.107136,43.20837 65.107136,43.021253 65.107136,42.584646 65.107136,42.148039 65.107136,41.960922 64.483411,42.647018 64.046805,43.270742 63.859687,43.832094 63.859687,54.061167 63.67257,54.061167 62.924101,54.310657 62.924101,58.988587 56.312627,58.988587 56.312627,58.364863 57.061096,58.364863 57.061096,57.179787 56.562117,55.620477 55.938393,55.620477 55.938393,55.183871 55.938393,54.934381 54.940434,54.934381 C 54.820755,53.474709 54.708239,52.122224 54.690945,51.815761 54.656355,51.171707 54.335055,51.067292 54.129593,51.067292 54.063873,51.067292 54.022835,51.063833 54.004848,51.067292 L 52.944517,51.192037 52.882145,51.00492 C 53.478465,50.910146 54.790762,50.695022 55.189924,50.630685 55.805614,50.533143 55.708964,49.912543 55.688903,49.819844 55.672299,49.542436 55.399178,44.787318 55.377041,44.143956 55.362513,43.647252 55.147279,43.520232 54.940434,43.520232 54.810378,43.520232 54.674921,43.564619 54.628572,43.582604 L 52.7574,43.894466 C 52.731114,43.565176 52.667937,43.224415 52.632655,42.896508 L 52.445538,42.771763 52.383166,42.771763 52.320793,42.771763 52.320793,42.709391 52.383166,42.771763 52.383166,42.709391 52.632655,42.522273 C 52.680388,42.267004 52.608688,42.037599 52.383166,41.898549 L 52.071304,41.960922 52.008931,41.898549 51.946559,41.836177 51.697069,41.960922 C 51.570472,41.752003 51.467998,41.662203 51.260463,41.64906 L 30.989432,41.586687 z M 45.459829,74.14508 C 45.403371,74.407881 45.284793,74.63777 45.21034,74.893549 L 45.459829,74.893549 45.459829,74.14508 z M 54.690945,43.832094 C 54.705473,43.829327 54.740865,43.839012 54.753317,43.832094 54.767845,43.825176 54.818568,43.832094 54.878062,43.832094 54.972143,43.832094 55.11925,43.900446 55.127551,44.143956 55.137928,44.442116 55.181735,45.609805 55.252296,46.825969 L 55.127551,46.825969 55.065179,45.266659 54.940434,45.079542 54.31671,45.017169 53.942476,45.079542 53.817731,45.266659 54.067221,48.821886 54.191965,49.071375 54.441455,49.071375 54.5662,49.071375 54.690945,49.133748 54.815689,49.133748 55.189924,49.071375 55.252296,48.946631 55.252296,48.884258 55.189924,47.075459 55.252296,47.075459 C 55.332544,48.481863 55.439413,49.874606 55.439413,49.882217 55.442872,49.894669 55.494892,50.261405 55.127551,50.318823 54.738767,50.381084 53.497145,50.594825 52.882145,50.693058 L 52.445538,44.268701 54.690945,43.832094 z M 54.067221,51.379154 C 54.067221,51.379154 54.096387,51.379154 54.129593,51.379154 54.226443,51.379154 54.420009,51.420749 54.441455,51.815761 54.461516,52.189327 54.6032,54.223156 54.753317,56.057084 L 54.31671,57.179787 54.31671,58.364863 54.940434,58.364863 C 54.962573,58.626358 54.991737,58.853689 55.002807,58.988587 L 53.443497,58.988587 52.944517,51.503899 54.067221,51.379154 z M 53.443497,59.238077 55.002807,59.238077 C 55.002807,59.371593 54.986919,59.579798 54.628572,59.612311 54.598134,59.615079 54.532882,59.672608 54.503827,59.674683 L 53.443497,59.674683 53.443497,59.238077 z M 21.945434,68.219702 C 21.864494,68.219702 21.781146,68.251635 21.758317,68.282075 20.835471,69.51899 21.739124,70.277992 22.631531,70.277992 22.65851,70.071147 22.718227,69.856961 22.756276,69.654267 22.698857,69.668794 22.628653,69.71664 22.569158,69.71664 22.468157,69.717332 22.352763,69.657615 22.257296,69.591895 L 21.945434,68.219702 z M 50.761483,74.020336 52.133676,74.020336 52.133676,74.332198 52.008931,74.332198 C 52.008931,74.332198 51.961668,74.332198 51.884187,74.332198 51.840606,74.332198 51.794724,74.328739 51.759442,74.332198 L 51.759442,74.269825 51.634697,74.207453 51.572325,74.269825 50.761483,74.020336 z M 53.131635,74.020336 53.256379,74.020336 53.256379,74.082708 53.131635,74.082708 53.131635,74.020336 z M 56.12551,74.020336 56.312627,74.020336 56.312627,74.082708 56.12551,74.082708 56.12551,74.020336 z M 48.703194,74.082708 49.326918,74.082708 50.262504,74.332198 48.703194,74.332198 48.703194,74.082708 z M 48.703194,74.706432 49.950642,74.706432 C 49.983848,74.835105 50.126914,74.955922 50.262504,74.955922 50.398093,74.953846 50.478788,74.82957 50.511994,74.706432 L 51.44758,74.706432 51.44758,74.831177 51.572325,74.831177 51.634697,74.768804 C 51.669286,74.828991 51.724964,74.904038 51.821814,74.955922 51.876464,74.986359 51.923841,75.04746 52.008931,75.080666 L 52.008931,75.205411 52.133676,75.267784 52.196049,75.143039 C 52.284597,75.175552 52.320793,75.205411 52.320793,75.205411 L 52.445538,75.018294 C 52.445538,75.018294 52.351812,74.986361 52.258421,74.955922 L 52.320793,74.831177 C 52.359532,74.845705 52.402648,74.831177 52.445538,74.831177 L 52.632655,74.831177 52.632655,77.2637 48.703194,77.2637 48.703194,74.706432 z M 51.884187,74.706432 52.133676,74.706432 52.071304,74.893549 C 51.983446,74.858267 51.957626,74.806162 51.946559,74.768804 51.941024,74.750819 51.886262,74.723034 51.884187,74.706432 z"
     id="rect4180" /></svg>