<?xml version="1.0" encoding="UTF-8" standalone="no"?>
<!-- Generator: Adobe Illustrator 15.0.2, SVG Export Plug-In . SVG Version: 6.00 Build 0)  -->

<svg
   xmlns:dc="http://purl.org/dc/elements/1.1/"
   xmlns:cc="http://creativecommons.org/ns#"
   xmlns:rdf="http://www.w3.org/1999/02/22-rdf-syntax-ns#"
   xmlns:svg="http://www.w3.org/2000/svg"
   xmlns="http://www.w3.org/2000/svg"
   xmlns:sodipodi="http://sodipodi.sourceforge.net/DTD/sodipodi-0.dtd"
   xmlns:inkscape="http://www.inkscape.org/namespaces/inkscape"
   version="1.1"
   id="Ebene_1"
   x="0px"
   y="0px"
   width="100px"
   height="100px"
   viewBox="0 0 100 100"
   enable-background="new 0 0 100 100"
   xml:space="preserve"
   inkscape:version="0.48.4 r9939"
   sodipodi:docname="admin-housing.svg"><metadata
     id="metadata3302"><rdf:RDF><cc:Work
         rdf:about=""><dc:format>image/svg+xml</dc:format><dc:type
           rdf:resource="http://purl.org/dc/dcmitype/StillImage" /><dc:title></dc:title></cc:Work></rdf:RDF></metadata><defs
     id="defs3300" /><sodipodi:namedview
     pagecolor="#ffffff"
     bordercolor="#666666"
     borderopacity="1"
     objecttolerance="10"
     gridtolerance="10"
     guidetolerance="10"
     inkscape:pageopacity="0"
     inkscape:pageshadow="2"
     inkscape:window-width="1366"
     inkscape:window-height="744"
     id="namedview3298"
     showgrid="false"
     inkscape:zoom="4.72"
     inkscape:cx="22.34954"
     inkscape:cy="50.749644"
     inkscape:window-x="0"
     inkscape:window-y="24"
     inkscape:window-maximized="1"
     inkscape:current-layer="Ebene_1" /><circle
     fill="#B2B2B2"
     cx="50"
     cy="50"
     r="50"
     id="circle3278" /><path
     inkscape:connector-curvature="0"
     style="fill:#222222;fill-opacity:1;stroke:none"
     d="M 46.279263,13.644838 C 45.926637,13.667944 45.61678,14.048473 45.418895,14.320841 45.50272,14.709236 45.634233,15.031014 45.664715,15.427029 45.801809,16.759862 45.406555,18.149233 44.865801,19.360141 44.84294,19.406846 44.819095,19.443719 44.804346,19.48305 44.758625,19.588507 44.727159,19.691996 44.681437,19.790325 44.544344,20.049418 44.39604,20.33039 44.251253,20.589238 44.213176,20.071297 43.925591,19.602764 43.575249,19.237231 43.011635,19.427495 42.612742,19.948386 42.346151,20.466328 42.285212,20.085554 42.176044,19.718053 42.038878,19.360141 41.962674,19.192491 41.892123,19.028284 41.793058,18.868502 41.480793,18.411523 41.020424,18.084337 40.502505,17.885223 40.060768,17.779521 39.577018,17.572541 39.150498,17.823768 38.914388,17.968556 38.735063,18.163982 38.65886,18.438318 38.933046,18.689544 39.244648,18.871205 39.457773,19.175775 39.670923,19.442244 39.750298,19.777787 39.826502,20.097598 39.887465,20.653642 39.902706,21.200837 39.826502,21.75688 39.79602,21.954764 39.81077,22.172315 39.765048,22.371429 39.681272,23.011296 39.525864,23.644282 39.396318,24.27653 L 39.211953,24.215075 C 39.04438,24.15362 38.903204,24.092166 38.720314,24.092166 38.735555,24.206226 38.751288,24.355192 38.781769,24.460894 38.79701,24.666645 38.797502,24.814874 38.843224,25.013989 38.911808,25.897463 38.979899,26.842148 38.781769,27.718003 38.690423,27.673754 38.627395,27.631966 38.53595,27.595093 38.353158,27.533637 38.165746,27.447602 37.982857,27.410728 37.959995,27.761021 38.052423,28.112789 38.105766,28.455461 38.166729,29.11057 38.189344,29.759287 38.167221,30.422017 38.136739,30.39006 38.082413,30.39006 38.044311,30.360562 37.983373,30.101714 37.866092,29.812384 37.675582,29.623103 37.508007,29.760025 37.443528,30.001666 37.245398,30.114742 37.131141,30.107367 37.083402,29.991833 36.999578,29.930378 36.953856,29.79321 36.891417,29.706683 36.876668,29.561648 36.625342,28.693414 36.249779,27.834521 35.709026,27.103453 35.465297,26.753161 35.098952,26.486447 34.725748,26.304541 34.474397,26.213587 34.262477,26.095594 33.988289,26.120176 33.683645,26.12755 33.355895,26.058721 33.066466,26.18163 32.777062,26.18163 32.480286,26.282416 32.206098,26.365996 31.771981,26.503654 31.349689,26.341413 30.915546,26.304541 30.412871,26.190235 29.836693,26.276762 29.440629,26.611814 29.059831,26.924251 28.886552,27.376314 28.764625,27.840912 28.757251,28.046663 28.757251,28.248973 28.764625,28.455461 28.802728,28.577387 28.849433,28.75536 28.887536,28.885644 28.986527,29.075909 29.14245,29.192919 29.31772,29.31583 29.401618,29.337953 29.479714,29.409241 29.563539,29.438739 L 29.747904,29.438739 C 30.01447,28.81362 30.935483,28.582058 31.46864,29.008555 31.719966,29.252162 31.884566,29.556732 32.021734,29.868923 31.24487,29.726348 30.409479,29.760763 29.624993,29.807468 28.992844,29.881214 28.359663,29.893505 27.719893,29.930378 27.087743,29.922757 26.424621,29.835246 25.876247,29.500194 25.579076,29.309684 25.270302,28.959145 25.384608,28.578371 25.552184,27.976605 26.010441,27.537571 26.429341,27.103453 25.972363,27.059206 25.511477,27.120661 25.077334,27.287819 24.087221,27.676213 23.443126,28.810179 23.663872,29.868923 23.770508,30.569508 24.307034,31.138827 24.954424,31.405294 25.815063,31.761733 26.798316,31.788773 27.719893,31.651114 28.291104,31.513947 28.800318,31.326632 29.379175,31.22093 29.836152,31.122602 30.335659,31.098021 30.792636,31.036565 30.747159,31.128256 30.661614,31.191432 30.608272,31.282385 30.394999,31.777465 30.703332,32.345555 31.038456,32.695847 31.145067,32.398897 31.264046,32.027218 31.59155,31.896933 31.941892,31.798114 32.308235,31.953472 32.574827,32.142753 32.902381,32.371365 32.921433,32.829573 32.943557,33.187485 32.928316,33.629223 33.004029,34.10513 32.882102,34.539492 32.859241,34.637821 32.712487,34.669777 32.636282,34.723858 32.621041,34.480004 32.574336,34.222386 32.513373,33.986399 32.277262,33.966734 32.073356,34.001148 31.83737,34.047854 31.426088,34.253605 30.984376,34.589885 30.977,35.092587 30.855149,34.879462 30.767808,34.65257 30.546816,34.539492 30.379266,34.423958 30.138511,34.5567 29.993723,34.662403 29.734826,34.868154 29.472094,35.172478 29.563539,35.522771 L 29.256265,35.399861 C 28.997318,35.385112 28.708677,35.362988 28.457352,35.461315 28.145087,35.552761 27.902782,35.763182 27.719893,36.01441 27.544624,36.349462 27.590346,36.770305 27.719893,37.120597 27.933143,37.516613 28.300027,37.772019 28.764625,37.796601 29.206389,37.834702 29.604246,37.555944 29.870813,37.243508 29.710884,37.191885 29.539203,37.159928 29.379175,37.120597 29.348693,37.073891 29.348201,36.990313 29.31772,36.936233 29.348201,36.84528 29.348693,36.781367 29.379175,36.690413 29.501101,36.697788 29.717422,36.646166 29.747904,36.813323 29.85454,37.246457 30.350875,37.518825 30.792636,37.427872 30.914563,37.351668 30.977984,37.258257 31.099911,37.182052 30.962989,37.593309 30.97651,38.046107 30.915546,38.472604 30.839391,38.685976 30.737327,38.888039 30.546816,39.025699 30.478331,39.001117 30.369581,39.025699 30.300997,39.025699 30.095371,38.919013 29.923173,38.747922 29.747904,38.595515 29.557639,39.007016 29.434729,39.513404 29.624993,39.947522 29.754491,40.274953 30.05781,40.517823 30.362452,40.684979 30.545243,40.746435 30.725036,40.815264 30.915546,40.869345 30.930787,41.242498 31.077541,41.617619 31.161366,41.975532 31.199468,42.098442 31.191356,42.191853 31.099911,42.282806 31.061809,42.115158 31.045093,41.9362 30.915546,41.791167 30.709917,41.539449 30.359823,41.483893 30.055178,41.483893 29.872386,41.30887 29.745691,41.122538 29.502084,41.053709 28.862314,40.840583 28.072889,41.366637 28.027167,42.036986 27.714903,41.899328 27.371396,41.859997 27.04389,41.914077 26.586911,42.119582 26.259234,42.532804 26.122066,43.020265 26.00781,43.660133 26.280154,44.298772 26.79807,44.679547 26.828552,44.405457 26.837155,44.139481 26.920979,43.880633 27.065695,43.856051 27.206376,43.880633 27.351163,43.880633 27.343789,44.040415 27.343789,44.212489 27.351163,44.372272 27.396886,44.441101 27.489806,44.549262 27.535529,44.618091 27.009992,44.701916 26.505544,45.122021 26.490795,45.662824 26.429857,46.249349 26.733174,46.82555 27.228254,47.137741 27.266356,47.15249 27.374517,47.174613 27.412618,47.199196 27.648729,47.250818 27.90647,47.346687 28.150077,47.322106 28.165318,47.299981 28.135328,47.223778 28.150077,47.199196 28.073849,46.940348 27.812812,46.689858 27.904257,46.400282 28.17852,46.301463 28.182034,46.638727 28.334441,46.769011 28.509613,46.793594 28.650811,46.776386 28.826081,46.707557 29.145966,46.508444 29.535712,46.828009 29.870813,46.646102 30.099303,46.773928 30.364665,46.783762 30.608272,46.707557 30.562549,46.859965 30.484871,46.992708 30.423907,47.137741 30.393451,47.434937 30.358496,47.998109 30.792636,47.998109 30.541287,48.202385 30.222335,48.034982 29.993723,47.8752 29.772879,48.27146 29.850583,48.730651 30.178088,49.042841 29.675412,49.324551 29.213984,49.737282 28.764625,50.087575 28.345726,50.438113 27.88587,50.767265 27.535529,51.193762 27.542903,51.346171 27.550278,51.478913 27.535529,51.623946 27.375598,51.928516 27.187547,52.208997 26.920979,52.42286 26.479243,52.042086 26.01993,51.719324 25.753338,51.193762 25.631583,50.888946 25.537508,50.522675 25.446063,50.210484 25.40796,50.065451 25.245474,50.173612 25.138788,50.14903 24.780802,50.469087 24.592823,50.905907 24.52424,51.378127 24.478517,51.675077 24.470897,52.003 24.52424,52.29995 24.569939,52.901716 24.933283,53.410808 25.138788,53.959232 24.613275,54.294284 24.089336,54.637939 23.540962,54.942509 22.756479,55.376627 21.927648,55.780754 21.021312,55.864332 20.792824,55.871707 20.528198,55.89383 20.345308,55.741423 20.040666,55.505436 19.812962,55.224218 19.546395,54.942509 18.891385,54.302641 18.249009,53.640157 17.45693,53.160318 16.520112,52.581905 15.35043,52.225959 14.261276,52.545769 14.025192,52.660075 13.761034,52.862877 13.646728,53.098864 13.646728,53.418921 14.032665,53.514299 14.261276,53.651957 14.794436,53.918426 15.193352,54.378354 15.490374,54.881055 15.772182,55.360894 16.076555,55.822298 16.350742,56.294516 16.754403,56.934139 17.153835,57.566878 17.641294,58.138162 18.273444,58.892091 19.086001,59.600296 20.038035,59.920353 20.373161,60.04818 20.693808,59.868732 21.021312,59.981808 20.587172,60.058013 20.149636,59.905604 19.73076,60.104719 19.08337,60.325709 18.581235,60.845373 18.010024,61.210906 17.934066,61.240404 17.848029,61.247778 17.764204,61.27236 17.779445,61.370443 17.803535,61.488682 17.82566,61.579635 18.389274,62.562176 19.425305,63.202044 20.529674,63.361826 20.80386,63.418365 21.115854,63.332328 21.390042,63.361826 21.412902,63.391324 21.429373,63.460155 21.451497,63.484736 21.375293,63.531441 21.343336,63.622395 21.267131,63.669101 21.465163,63.806022 21.667325,63.932127 21.75877,64.16074 21.97964,64.625339 22.308964,65.129268 22.864958,65.205472 22.88782,65.297409 22.895931,65.367714 22.926413,65.451292 23.063507,65.870414 23.181328,66.338209 23.356597,66.741844 23.592781,67.244545 23.772032,67.729793 23.848236,68.278215 23.779679,68.65899 23.432801,69.00363 23.418052,69.384404 23.570362,69.658492 23.857331,69.855394 24.032601,70.121861 24.047939,70.388576 23.964017,70.661928 24.032601,70.920775 24.283952,71.179869 24.596461,71.39029 24.954424,71.473869 25.525659,71.420526 26.096304,71.129722 26.67516,71.10514 27.033122,71.10514 27.369551,71.036311 27.719893,71.10514 28.131175,71.151846 28.53771,71.068266 28.94899,71.043685 29.03289,71.011729 29.110985,71.006812 29.194809,70.982231 29.4233,70.920775 29.627206,70.630709 29.870813,70.736411 L 30.116633,70.85932 C 30.06329,71.026724 30.062307,71.191177 29.993723,71.350959 29.841389,71.503367 29.577059,71.52795 29.379175,71.596779 28.8308,71.653318 28.275888,71.712314 27.719893,71.658234 27.377171,71.673475 26.889023,71.577113 26.736615,71.965508 26.584282,72.012214 26.405004,72.063836 26.244976,72.088418 26.145985,72.120374 26.044387,72.120374 25.937702,72.149872 25.64068,72.210836 25.381979,72.181829 25.077334,72.211327 24.726991,72.31703 24.321514,72.250658 23.971145,72.395692 23.765519,72.501394 23.53875,72.604639 23.295142,72.580056 23.081895,72.565061 22.871595,72.651344 22.742049,72.825876 22.726808,73.099965 22.702472,73.381428 22.557684,73.62479 22.260636,73.967461 21.826863,74.197303 21.697315,74.669522 21.636353,75.027436 21.65061,75.410176 21.635861,75.775709 21.597759,75.785542 21.489598,75.812583 21.451497,75.837165 21.078319,76.057911 20.75042,76.331999 20.529674,76.697532 20.499119,77.177372 20.245751,77.623534 20.283854,78.110995 20.268613,79.2838 20.453961,80.441118 20.591128,81.613923 20.568267,82.078521 20.60686,82.562785 20.652583,83.027384 20.881073,83.035005 21.114232,83.120796 21.205677,83.334659 L 21.205677,83.703387 C 21.236159,83.779592 21.298105,83.865629 21.328587,83.949207 21.541836,84.117348 21.807075,84.172904 22.066045,84.256482 22.37069,84.347927 22.490723,84.696498 22.742049,84.87103 22.9934,85.016064 23.266775,84.907903 23.540962,84.932485 24.043639,84.92511 24.582278,85.016064 25.077334,84.87103 25.267745,84.824325 25.378462,84.654709 25.568972,84.625211 25.789843,84.670933 25.993012,84.834158 26.183522,84.932485 26.663361,85.258934 27.210113,85.399543 27.781348,85.301214 27.849932,85.256967 27.966204,85.215177 28.027167,85.178305 28.171856,85.093743 28.26635,85.030813 28.395897,84.932485 28.822394,85.02393 29.190336,85.296298 29.563539,85.485578 29.921501,85.554409 30.242689,85.800228 30.608272,85.731398 31.095732,85.687151 31.603349,85.75598 32.083189,85.731398 32.761035,85.700916 33.371896,85.453623 34.049745,85.424124 34.080226,85.470829 34.142172,85.571616 34.172654,85.608489 34.736269,85.645362 35.329799,85.608735 35.893391,85.608489 36.297075,85.494429 36.718803,85.431498 37.122487,85.301214 37.221504,85.269258 37.269242,85.264342 37.368307,85.23976 37.589201,85.17093 37.869779,85.11685 38.105766,85.11685 38.692217,85.124225 39.285749,85.027126 39.826502,85.301214 40.443436,85.599394 41.145152,85.482875 41.731603,85.178305 42.021031,85.048512 42.348783,84.92511 42.653426,84.87103 43.041871,84.846448 43.37879,84.856281 43.759614,84.809575 44.125196,84.725751 44.331071,85.215177 44.681437,85.178305 44.925166,85.27737 45.097855,85.441331 45.295985,85.608489 45.570173,85.851604 45.959379,85.77073 46.279263,85.915764 46.462055,85.984593 46.618986,86.154208 46.832357,86.100128 47.228397,85.949195 47.665416,85.930513 48.061454,85.792853 48.434658,85.817435 48.848274,85.817435 49.229097,85.792853 49.297435,85.709275 49.329637,85.623238 49.413462,85.547034 49.641952,85.608489 49.860853,85.731398 50.089465,85.792853 50.599763,85.92068 51.107919,85.746147 51.625837,85.792853 51.976179,85.763355 52.426962,85.859225 52.67057,85.547034 53.218944,85.379631 53.773857,85.669944 54.329851,85.669944 54.398411,85.586365 54.530439,85.510162 54.637125,85.547034 55.071267,85.76778 55.417382,86.237786 55.927677,86.284492 56.384656,86.400028 56.822707,86.193539 57.279684,86.284492 58.132727,86.466399 58.992531,86.237786 59.860789,86.284492 60.226372,86.314974 60.522536,86.05121 60.659702,85.731398 60.941511,85.708537 61.19205,85.908388 61.458616,85.977218 61.907997,85.977218 62.361265,86.001799 62.810623,85.977218 62.962956,85.871515 63.096511,85.669944 63.302262,85.731398 63.652604,85.807602 63.981412,85.901015 64.346995,85.854308 65.291409,85.760897 66.22948,86.060797 67.173919,85.977218 67.18916,85.947719 67.21325,85.883807 67.235373,85.854308 67.342059,85.817435 67.428342,85.817435 67.542648,85.792853 67.59599,85.876186 67.68129,85.955095 67.727012,86.038673 68.016441,86.168957 68.290332,85.984593 68.58738,86.038673 68.853948,86.016549 69.058272,86.313991 69.324839,86.161583 69.797058,85.910356 70.197007,85.537201 70.676846,85.301214 70.783581,85.254509 70.877435,85.232385 70.984121,85.178305 71.235446,85.114392 71.470227,85.087352 71.721579,85.11685 71.843431,85.161097 72.022216,85.178305 72.151763,85.178305 72.448812,85.079976 72.737944,85.175846 73.012131,84.993941 73.446274,84.969359 73.930022,84.993941 74.364138,84.993941 74.47847,85.038188 74.549486,85.079976 74.671412,85.11685 74.884662,85.116604 75.134045,85.11685 75.347417,85.11685 75.682518,85.045562 75.99557,85.030813 76.330694,85.055395 76.505865,85.178305 76.709257,85.308589 76.945242,85.23976 77.067095,85.200428 77.184425,85.202887 77.313972,85.178305 77.588158,85.08686 77.929996,85.061049 78.112885,84.809575 78.128126,84.58883 78.12198,84.293355 78.297249,84.133571 78.548602,83.90496 78.936135,83.838834 79.096163,83.519023 79.148768,83.351375 79.157618,83.140462 79.157618,82.96593 79.081414,82.980679 78.980382,83.002802 78.911799,83.027384 78.812734,82.653985 78.727925,82.248137 78.788888,81.859742 78.865021,81.463481 78.650247,81.141949 78.604524,80.753554 78.589209,80.585414 78.518733,80.399574 78.358704,80.32337 78.343955,79.980698 78.351331,79.675144 78.358704,79.340093 78.671067,79.59894 78.644101,80.034532 78.788888,80.384825 78.872714,80.575335 78.705064,80.738805 78.788888,80.937919 78.887955,81.204387 78.995377,81.501337 78.973253,81.798287 79.09518,82.057381 78.988985,82.3767 79.034708,82.658655 79.095671,82.53722 79.12812,82.388254 79.280528,82.35138 79.569931,82.206593 79.88131,82.011166 80.079442,81.736832 80.062234,81.394159 80.048468,81.096227 80.017986,80.753554 79.90368,79.968898 80.263314,79.148845 80.202351,78.356814 80.171869,78.006522 80.163266,77.654754 80.079442,77.312082 79.911792,76.870344 80.178015,76.401812 80.017986,75.960075 79.774255,75.845031 79.440064,75.812583 79.219072,75.6528 78.998205,75.523253 78.864601,75.36765 78.727434,75.161161 78.34661,74.605117 77.970556,73.98172 77.498337,73.501879 77.208933,73.20493 76.964932,72.877498 76.576513,72.702966 76.210931,72.57514 75.789694,72.543184 75.408871,72.518602 75.439352,72.046383 75.532273,71.569738 75.593235,71.10514 75.684655,71.090391 75.747611,71.129722 75.839055,71.10514 75.938022,71.073183 76.047264,71.006812 76.146329,70.982231 76.245369,70.952731 76.354538,70.945357 76.453604,70.920775 76.529807,70.898651 76.62322,70.883902 76.699424,70.85932 76.775627,70.829822 76.869039,70.822447 76.945242,70.797865 77.036713,70.768367 77.091997,70.714287 77.191062,70.674956 77.320534,70.623333 77.491699,70.544671 77.621246,70.490591 78.22294,70.208636 78.830137,69.85564 79.157618,69.261494 79.477675,68.667348 79.28864,67.996261 79.341983,67.356393 79.409337,67.02134 79.388689,66.646958 79.403438,66.31166 79.70808,66.151877 80.004221,65.986441 80.202351,65.697111 80.392664,65.460879 80.510609,65.180153 80.632535,64.898198 80.87624,64.464081 81.425916,64.279962 81.677268,63.853465 81.799194,63.632473 81.677268,63.351993 81.677268,63.116007 81.631546,61.257611 81.43194,59.443464 81.492903,57.585069 81.82803,57.173813 82.353246,56.819587 82.353272,56.233062 82.345651,55.311485 82.229378,54.381549 82.107452,53.467593 81.90942,52.096658 81.6372,50.721051 81.431449,49.350116 81.362864,49.045546 81.292806,48.732863 81.247083,48.428293 81.125157,48.05514 81.225206,47.680019 81.369993,47.322106 81.415716,47.047771 81.43956,46.743693 81.492903,46.461738 81.598605,45.623985 81.623187,44.787461 81.615813,43.942088 81.608192,43.705855 81.630562,43.502071 81.615813,43.266084 81.562469,43.266084 81.415716,43.204629 81.369993,43.204629 81.347132,43.067463 81.346641,42.912105 81.308538,42.774445 81.277811,42.500111 81.269207,42.257487 81.247083,41.975532 81.201362,41.800509 81.231352,41.59697 81.185629,41.422438 81.162767,41.317227 81.154656,41.213492 81.124174,41.115163 81.101313,41.007249 81.031745,40.906217 81.001265,40.80789 80.978403,40.678097 80.970291,40.56207 80.939809,40.43916 80.901707,40.263891 80.930714,40.053223 80.755445,39.947522 80.664,39.841082 80.463903,39.753324 80.509625,39.578792 80.64672,38.512427 80.817883,37.449258 80.939809,36.383139 81.023634,35.849957 81.116062,35.326115 81.062719,34.785312 80.85709,34.458865 80.491262,34.394459 80.140896,34.478038 79.843822,34.630446 79.7026,34.972135 79.649258,35.276951 79.641637,35.573901 79.59493,35.84037 79.526347,36.137319 79.519218,36.266867 79.541096,36.429845 79.526347,36.567504 79.473005,36.788249 79.4644,37.02227 79.403438,37.243508 79.35034,37.883375 79.279544,38.508986 79.157618,39.148608 78.769197,39.37722 78.250544,39.606324 78.235795,40.131886 78.121489,40.13926 78.035207,40.168758 77.928521,40.193341 77.898039,40.232672 77.836093,40.340832 77.805611,40.377706 77.828472,40.674655 77.792999,41.024211 78.112885,41.176619 78.073554,41.359509 78.029061,41.547806 78.112885,41.729713 78.227191,42.011667 78.106249,42.315747 78.235795,42.590081 78.350052,42.651536 78.482597,42.688408 78.604524,42.71299 78.535941,43.230932 78.458261,43.723801 78.42016,44.249363 77.993639,44.081467 77.601826,43.895382 77.129608,43.942088 76.962056,43.728717 76.78964,43.494696 76.576513,43.32754 76.348025,43.144649 76.106261,43.035014 75.90051,42.8359 75.809065,42.615154 75.746135,42.388509 75.65469,42.159897 75.39572,41.489793 74.903835,40.874261 74.241228,40.56207 74.13447,40.517823 74.040639,40.485866 73.933954,40.43916 73.644549,40.331 73.309156,40.316251 73.012131,40.254795 72.852175,40.240046 72.734355,40.22284 72.581947,40.193341 72.345813,39.949488 72.282048,39.591329 72.274673,39.271518 72.533619,39.043151 72.690599,38.785041 72.827767,38.472604 72.622114,38.221377 72.458054,37.917052 72.336128,37.612236 72.305646,37.437213 72.289422,37.295129 72.274673,37.120597 72.472656,37.006537 72.621278,36.796116 72.643401,36.567504 72.689101,36.316031 72.435193,36.206149 72.336128,36.01441 72.160956,35.610775 71.981165,35.173707 71.783034,34.785312 71.744932,34.54908 71.805404,34.337921 71.721579,34.109308 71.500709,33.797118 71.065808,33.654543 70.738301,33.49476 70.144228,33.305479 69.511587,33.371851 68.894655,33.371851 68.59001,33.401349 68.331335,33.396433 68.034287,33.49476 67.927674,33.67765 67.825586,33.84874 67.665557,33.986399 67.353293,34.146428 67.164086,34.480496 66.9281,34.723858 66.912859,34.861024 66.897126,34.954928 66.866644,35.092587 66.760007,35.62577 66.588868,36.164851 66.43646,36.690413 66.20797,37.200734 65.996444,37.724085 65.760457,38.226785 66.065125,38.554217 66.599438,38.599202 66.805189,39.025699 66.850912,39.116652 66.890489,39.165816 66.989554,39.210063 66.989554,39.246935 66.98218,39.357554 66.989554,39.394427 67.050517,39.524466 67.065266,39.610749 66.9281,39.701702 66.806247,39.419747 66.656789,39.170732 66.375005,39.025699 66.116035,38.956868 65.835038,38.942119 65.576092,39.025699 65.598953,38.94974 65.676879,38.856083 65.699002,38.779879 65.653279,38.681796 65.56036,38.563558 65.514637,38.472604 65.605591,38.282094 65.637546,38.05717 65.637546,37.858056 65.705885,37.698028 65.753328,37.580279 65.821912,37.427872 65.852393,37.184264 65.836169,36.896902 65.699002,36.690413 65.744724,36.621584 65.768568,36.582253 65.821912,36.506049 65.814291,36.352657 65.736613,36.188941 65.637546,36.075865 65.80495,35.786535 65.835038,35.390029 65.576092,35.154042 65.393202,35.062597 65.460557,34.891014 65.453182,34.723858 65.278084,34.57907 65.423192,34.438707 65.514637,34.293674 65.499396,34.19338 65.475306,34.092102 65.453182,33.986399 65.443349,33.894462 65.453182,33.777453 65.453182,33.679124 65.82636,33.351694 66.179087,33.000663 66.620825,32.757301 66.856935,32.651599 67.153148,32.548355 67.419739,32.511482 67.686305,32.454944 67.936844,32.4869 68.218651,32.511482 68.317642,32.550814 68.41924,32.543439 68.525926,32.572937 68.746793,32.732965 68.880889,33.020329 69.079019,33.187485 69.909202,33.446334 70.805901,32.550322 70.615391,31.712569 70.531567,31.636365 70.453397,31.582285 70.369571,31.528205 71.001721,31.523288 71.642524,31.626532 72.274673,31.58966 72.983,31.566798 73.701508,31.410702 74.364138,31.159475 75.141,30.847285 75.842202,30.315577 76.207785,29.561648 76.245886,29.453734 76.284971,29.352702 76.330694,29.254374 76.3774,29.026007 76.345443,28.806983 76.330694,28.578371 76.292592,28.433829 76.238266,28.29322 76.207785,28.148187 75.964056,27.409499 75.225834,26.94859 74.487048,26.857634 74.540391,26.987183 74.61807,27.103453 74.671412,27.226364 74.710744,27.493078 74.770478,27.766429 74.671412,28.025277 74.557156,28.588941 74.014067,28.939726 73.503771,29.07001 73.602712,29.0823 73.704359,29.045428 73.811044,29.07001 74.024294,29.131464 74.235083,29.185545 74.425594,29.31583 74.532106,29.5292 74.370284,29.723889 74.179774,29.807468 73.654261,30.050584 73.091728,30.075411 72.520492,30.114742 71.553218,30.060662 70.599388,29.95496 69.632114,29.930378 69.670215,29.915629 69.716921,29.868923 69.755023,29.868923 69.808366,29.814843 69.878425,29.792718 69.939387,29.746014 70.129751,29.555749 70.247154,29.329103 70.308117,29.07001 70.315737,29.018388 70.362197,28.870895 70.369571,28.82419 70.727534,28.82419 71.024828,29.018388 71.291394,29.254374 71.641737,29.025762 71.945521,28.667111 72.090308,28.271096 L 72.090308,27.410728 C 71.846603,26.793721 71.255701,26.370912 70.676846,26.058721 70.516915,26.012015 70.399071,25.928437 70.246662,25.874357 L 69.877933,25.874357 C 69.794354,25.903855 69.715938,25.911229 69.632114,25.935811 69.425871,26.179419 69.485851,26.552818 69.447749,26.857634 69.348708,26.818303 69.23954,26.759306 69.140475,26.734725 69.003478,26.819286 68.886052,26.990377 68.771746,27.103453 68.642274,27.064122 68.540184,26.911715 68.403016,26.980544 68.334433,27.049373 68.279615,27.157535 68.218651,27.226364 68.10442,27.194407 67.964228,27.128035 67.849923,27.103453 67.75103,27.13541 67.680306,27.226364 67.604103,27.287819 67.535543,27.097555 67.464478,26.919089 67.296828,26.79618 67.030262,26.570026 66.633434,26.611814 66.31355,26.611814 66.107898,26.611814 65.966208,26.734725 65.760457,26.734725 65.402494,26.711864 65.027988,26.533152 64.715723,26.365996 64.593921,26.265701 64.515136,26.120176 64.40845,25.997266 64.393209,26.043972 64.361744,26.144758 64.346995,26.18163 64.286031,26.433104 64.261203,26.697851 64.101175,26.919089 63.430948,26.995293 62.804871,26.987918 62.13462,26.919089 62.119379,27.246521 62.197057,27.605417 62.318984,27.902367 62.372326,27.993321 62.388551,28.049858 62.441894,28.148187 61.984916,28.207921 61.546865,28.271096 61.089886,28.209641 61.219361,28.948329 61.687352,29.618187 62.380439,29.930378 62.266182,30.26543 62.087422,30.586224 61.950255,30.913655 61.721767,31.454459 61.47017,32.046391 61.028432,32.450028 60.914224,32.549339 60.866437,32.634392 60.782612,32.757301 60.881652,32.789258 60.990821,32.843338 61.089886,32.880212 L 61.76589,32.880212 C 61.529779,33.512214 61.154242,34.089643 60.598248,34.478038 60.979071,34.583741 61.446004,34.572433 61.76589,34.846767 61.75065,34.976068 61.795881,35.109795 61.704436,35.215497 61.498782,35.481964 61.20257,35.608808 60.905522,35.76859 60.654196,35.890271 60.411671,36.061116 60.168064,36.198774 60.472709,36.404279 60.838561,36.400838 61.089886,36.690413 61.059406,36.781121 61.066534,36.89936 61.028432,36.997688 60.289646,36.883381 59.532004,36.781367 58.816057,36.567504 58.877019,36.68943 58.939458,36.805949 59.000421,36.936233 59.069005,37.141984 59.177657,37.344293 59.246241,37.550781 58.964433,37.505059 58.768367,37.233675 58.570237,37.059142 58.1285,36.609784 57.467491,36.564308 56.972411,36.198774 56.667865,35.977782 56.527478,35.581031 56.542227,35.215497 56.534629,35.055959 56.613514,34.763189 56.8495,34.846767 57.260782,34.945832 57.326882,35.364217 57.464049,35.707135 L 57.586959,35.891501 C 57.76975,35.920999 57.964783,35.916082 58.140054,35.891501 58.216257,35.859544 58.248214,35.854627 58.324418,35.830045 58.415764,35.793172 58.540248,35.744008 58.631692,35.707135 59.629424,35.31112 59.946581,34.200999 60.106609,33.24894 60.548347,32.891028 60.922238,32.391276 61.089886,31.835478 61.188928,30.89104 61.019828,29.945373 60.905522,29.008555 60.814002,28.505854 60.758768,28.036339 60.659702,27.533637 60.591119,27.069039 60.551542,26.630989 60.475338,26.18163 60.429861,25.846578 60.351937,25.46433 60.290973,25.136898 60.093013,23.438285 59.919343,21.681168 60.475338,20.036144 60.543921,19.891356 60.591119,19.750993 60.659702,19.605959 60.941486,19.027055 61.448095,18.558524 62.011709,18.253952 62.065053,18.244119 62.142731,18.253952 62.196075,18.253952 62.180834,18.139892 62.095534,18.015508 62.011709,17.946679 61.684205,17.787142 61.394015,17.639404 61.028432,17.639404 60.66285,17.639404 60.264965,17.754939 59.922245,17.885223 59.800367,17.954053 59.675441,18.008133 59.553515,18.069588 58.060726,18.96855 57.149426,20.532699 56.296407,22.0027 56.182225,21.804569 56.088198,21.594639 55.989133,21.388152 55.318907,20.040077 54.734961,18.640627 54.514216,17.147765 54.392338,16.058539 54.457996,14.90417 55.067309,13.952111 54.259963,13.6323 53.319016,14.042327 52.793479,14.68957 52.031858,15.618768 51.763004,16.835083 51.625837,18.008133 51.572543,18.906849 51.561235,19.81294 51.195653,20.650693 51.14993,20.735255 51.110845,20.812933 51.072743,20.896512 50.844255,21.285152 50.531229,21.712633 50.089465,21.87979 50.013261,21.787854 50.019407,21.663469 49.905101,21.63397 49.73755,21.641345 49.56587,21.7028 49.413462,21.75688 49.436322,21.612093 49.452792,21.47173 49.474917,21.326696 49.512772,21.181909 49.575703,21.041546 49.597826,20.896512 49.635929,20.744104 49.644532,20.557281 49.659281,20.404873 49.727619,20.130539 49.713607,19.880049 49.78219,19.605959 49.805052,19.019435 49.774079,18.410294 49.720736,17.823768 49.690255,17.717083 49.681405,17.629571 49.659281,17.516495 49.567836,17.356712 49.542516,17.093685 49.352006,17.024856 49.054984,17.093439 48.77342,17.280508 48.491638,17.393584 48.567794,16.494869 48.472219,15.535681 47.999999,14.751025 47.680116,14.225709 47.157232,13.760373 46.525083,13.706292 46.458711,13.691543 46.403156,13.708505 46.340719,13.706292 L 46.340719,13.644838 C 46.319824,13.6441 46.298929,13.643608 46.279263,13.644838 z M 35.954845,43.32754 C 36.760272,43.302958 37.607614,43.328031 38.413041,43.32754 38.681524,43.327294 38.94347,43.327048 39.211953,43.32754 L 42.407607,43.32754 C 42.35429,43.82262 42.380297,44.375467 42.776335,44.741001 43.073384,45.045326 43.578913,45.370299 44.005433,45.171186 43.822789,44.828513 43.652928,44.391937 43.759614,44.003543 43.85101,43.865884 44.052631,43.910131 44.189798,43.880633 44.265953,44.253787 44.369173,44.620549 44.681437,44.863911 44.948003,45.068924 45.260538,45.318677 45.60326,45.294095 45.79377,45.301715 45.686838,45.077774 45.664715,44.98682 45.57327,44.704866 45.388414,44.431022 45.418895,44.126452 45.479834,43.883337 45.758864,43.843761 45.971989,43.819179 46.169972,44.291397 46.181427,44.837116 46.402173,45.294095 46.524025,45.340801 46.739929,45.28672 46.709447,45.478459 46.716823,48.486798 46.716823,51.503987 46.709447,54.512325 43.137395,54.536907 39.526897,54.487743 35.954845,54.512325 35.915514,52.66917 35.96222,50.824542 35.954845,48.981387 L 35.954845,43.32754 z M 48.553094,43.32754 C 49.512747,43.278375 50.420361,43.352121 51.380017,43.32754 51.394275,43.32754 51.426723,43.328277 51.441472,43.32754 51.546929,43.322623 51.645502,43.379161 51.625837,43.511904 51.633212,47.814974 51.625837,52.10649 51.625837,56.417426 55.769101,56.41718 59.957889,56.417426 64.101175,56.417426 64.101175,57.407587 64.093801,58.438554 64.101175,59.428715 60.003587,59.453297 55.907789,59.428715 51.810201,59.428715 51.642553,59.389629 51.633212,59.576206 51.625837,59.674534 51.633212,65.874347 51.625837,72.034337 51.625837,78.233905 51.046981,78.675642 50.523606,79.183997 50.089465,79.770277 49.731502,79.320918 49.394042,78.884097 48.921822,78.541179 48.792276,78.411878 48.530969,78.332232 48.553094,78.110995 48.545424,71.880946 48.567843,65.658764 48.553094,59.428715 L 35.954845,59.428715 C 35.96222,58.430934 35.916743,57.415208 35.954845,56.417426 L 48.553094,56.417426 C 48.553094,52.061014 48.545718,47.684198 48.553094,43.32754 z M 58.017143,43.696268 C 58.201828,43.696268 58.384398,43.695285 58.570237,43.696268 59.127903,43.701185 59.686847,43.669228 60.229518,43.819179 60.587481,43.994202 60.946745,44.212489 61.274252,44.433727 61.624593,44.532792 61.952221,44.300984 62.196075,44.064997 62.424563,44.30123 62.57503,44.635299 62.872078,44.802456 63.268117,45.038689 63.804644,45.112188 64.16263,45.417004 64.109778,46.513605 64.10855,47.577266 64.101175,48.674113 64.101175,50.616332 64.086426,52.577726 64.101175,54.512325 62.197083,54.561489 60.289941,54.512325 58.385872,54.512325 56.740725,54.512079 55.114605,54.536907 53.469483,54.512325 53.477153,51.427782 53.454734,48.317182 53.469483,45.23264 53.614196,45.193309 53.838703,45.222807 53.899667,45.048275 54.067145,44.64464 53.925134,44.184712 54.206941,43.819179 54.382112,43.757232 54.591895,43.85851 54.698581,44.003543 54.782356,44.43766 54.559446,44.829005 54.452761,45.23264 55.008756,45.331705 55.515363,44.921678 55.804768,44.495182 55.949556,44.304918 55.898179,44.055164 56.050588,43.880633 56.210542,43.863426 56.396948,43.851134 56.480772,44.003543 56.557051,44.361701 56.349258,44.720843 56.234952,45.048275 56.25779,45.222807 56.489375,45.171186 56.603681,45.171186 57.0759,45.08736 57.496743,44.806389 57.709868,44.372272 57.816529,44.158901 57.910457,43.910131 58.017143,43.696268 z M 41.731603,61.27236 C 43.331026,61.272606 44.925634,61.27236 46.525083,61.27236 L 46.586538,61.27236 C 46.71166,61.27187 46.709447,61.459183 46.709447,61.579635 46.709447,66.926454 46.716823,72.272782 46.709447,77.619356 45.231875,77.619356 43.762268,77.594774 42.284697,77.619356 41.043236,77.619356 39.769793,77.580025 38.53595,77.434991 37.850483,77.328305 37.118285,77.238089 36.630848,76.697532 36.044274,76.118628 35.969595,75.261947 35.954845,74.485157 35.947176,70.090643 35.96222,65.728331 35.954845,61.333815 37.881776,61.284652 39.804673,61.296943 41.731603,61.27236 z M 53.469483,61.333815 C 53.956918,61.387896 54.395485,61.333815 54.882945,61.333815 57.937081,61.334061 61.047016,61.333815 64.101175,61.333815 64.115924,65.766432 64.093801,70.244526 64.101175,74.669522 64.116416,75.431317 63.934929,76.272265 63.363716,76.820443 62.868636,77.292907 62.167461,77.319456 61.520071,77.434991 60.179617,77.597233 58.873602,77.619356 57.525504,77.619356 56.17743,77.619356 54.817557,77.643937 53.469483,77.619356 53.484232,73.788259 53.462109,69.950526 53.469483,66.127295 53.452276,64.527748 53.515205,62.933117 53.469483,61.333815 z"
     id="rect4376" /></svg>